<?xml version="1.0" encoding="utf-8"?>
<!-- Generator: Adobe Illustrator 28.0.0, SVG Export Plug-In . SVG Version: 6.00 Build 0)  -->
<svg version="1.1" id="Layer_1" xmlns="http://www.w3.org/2000/svg" xmlns:xlink="http://www.w3.org/1999/xlink" x="0px" y="0px"
	 viewBox="0 0 2000 1631" style="enable-background:new 0 0 2000 1631;" xml:space="preserve">
<style type="text/css">
	.st0{fill:url(#SVGID_1_);}
	.st1{fill:url(#SVGID_00000050663124430494005750000007707281040098141331_);}
	.st2{fill:url(#SVGID_00000176030966776106909820000010245279081171352995_);}
	.st3{fill:url(#SVGID_00000106148648734380003240000003920522328298853778_);}
	.st4{fill:url(#SVGID_00000176735212138739091990000015989050434912637878_);}
	.st5{fill:url(#SVGID_00000176044204016319795410000005458091399603333540_);}
	.st6{fill:url(#SVGID_00000155128863517788708660000009357152344084878491_);}
	.st7{fill:url(#SVGID_00000060744228770140737430000011504443967715188145_);}
	.st8{fill:url(#SVGID_00000029753236208800146730000014948026099857460907_);}
	.st9{fill:url(#SVGID_00000003093325827511157620000012531782414198205852_);}
	.st10{fill:url(#SVGID_00000180364274433698744880000013056981692486549170_);}
	.st11{fill:url(#SVGID_00000059996834223159125940000004045733956923657139_);}
	.st12{fill:url(#SVGID_00000036230193280570147720000014740357796657476258_);}
	.st13{fill:#A5643A;}
	.st14{fill:#2C5060;}
	.st15{fill:#CD8966;}
	.st16{fill:url(#SVGID_00000092457610470328257600000016690786744505637560_);}
	.st17{fill:url(#SVGID_00000107582349516619588000000016970595979621476495_);}
	.st18{fill:url(#SVGID_00000135666207683519397410000017609838564103850126_);}
	.st19{fill:url(#SVGID_00000013897213409376609000000016058756500410812325_);}
	.st20{fill:url(#SVGID_00000141418280941713610460000010463082697460907393_);}
	.st21{fill:url(#SVGID_00000143616986182334152290000017976309008005927572_);}
	.st22{fill:url(#SVGID_00000075866285048363339210000010397485919232366219_);}
	.st23{fill:url(#SVGID_00000149344444191382873580000000624712343470410682_);}
	.st24{fill:url(#SVGID_00000098909808840214168480000007542703817421393042_);}
	.st25{fill:url(#SVGID_00000073693392861783401050000011942893318068901769_);}
	.st26{fill:url(#SVGID_00000132063343635051394060000003400302853624042669_);}
	.st27{fill:url(#SVGID_00000010303653226214853850000010111760761382225318_);}
	.st28{fill:url(#SVGID_00000124848973991700929780000005989628983636606897_);}
	.st29{fill:none;}
	.st30{fill:url(#SVGID_00000035512507208805890030000001758796141950323887_);}
	.st31{fill:url(#SVGID_00000109731562591333797960000004337434250730802850_);}
	.st32{fill:url(#SVGID_00000026871626226542719750000003461051853762161080_);}
	.st33{fill:url(#SVGID_00000096061500822854207970000005372002855427886749_);}
	.st34{fill:url(#SVGID_00000137129622312174122240000011559376423667265669_);}
	.st35{fill:url(#SVGID_00000013154169578714397610000017608120125985749678_);}
	.st36{fill:url(#SVGID_00000109712838710980185410000010796851168394547341_);}
	.st37{fill:url(#SVGID_00000168800414741504732490000002192954671635510413_);}
	.st38{fill:url(#SVGID_00000153702743440958628200000001315677367165814437_);}
	.st39{fill:url(#SVGID_00000044144908254951455610000002440402684676923526_);}
	.st40{fill:url(#SVGID_00000131358893607120285980000011150207325422502799_);}
	.st41{fill:url(#SVGID_00000066513071324977813910000006869414978383391890_);}
	.st42{fill:url(#SVGID_00000064317540520565214020000013364804682386808977_);}
	.st43{fill:url(#SVGID_00000080895957622703992580000001668325133008892047_);}
	.st44{fill:url(#SVGID_00000180324910484248019700000013980790931770642311_);}
	.st45{fill:url(#SVGID_00000158025194959226921560000000349534321459130299_);}
	.st46{fill:url(#SVGID_00000163068617609242723700000011063978407762471847_);}
	.st47{fill:url(#SVGID_00000065043820508276725750000010827680442045106096_);}
	.st48{fill:url(#SVGID_00000065040681395402294370000008643738211546142604_);}
	.st49{fill:url(#SVGID_00000098943364999412897600000002918313542461106590_);}
	.st50{fill:#0C0500;}
	.st51{fill:url(#SVGID_00000034799614360111409360000017879338691693879937_);}
	.st52{fill:url(#SVGID_00000093161075716698283710000014990083175071833730_);}
	.st53{fill:url(#SVGID_00000170256964337284137490000017568466614387787403_);}
	.st54{fill:url(#SVGID_00000134251424178917012690000006955970082746143380_);}
	.st55{fill:url(#SVGID_00000051376870786253523780000006523214152763368085_);}
	.st56{fill:url(#SVGID_00000062902559335729352970000009688509429514835607_);}
	.st57{fill:url(#SVGID_00000164503003160041447810000009618719012312177855_);}
	.st58{fill:url(#SVGID_00000039113227652306712780000016833745121870449847_);}
	.st59{fill:url(#SVGID_00000084495297104663600680000006634177130877549707_);}
	.st60{fill:url(#SVGID_00000064345984184420798930000013739768553352596101_);}
	.st61{fill:url(#SVGID_00000082344696781887980240000003942886952213044657_);}
	.st62{fill:url(#SVGID_00000131325291031949106690000014374279145136567968_);}
	.st63{fill:url(#SVGID_00000044871316853632996090000007791628007646991550_);}
	.st64{fill:url(#SVGID_00000162353343083246248370000002300334570032298930_);}
	.st65{fill:url(#SVGID_00000003784093239213660760000012734003317173785220_);}
	.st66{fill:url(#SVGID_00000021081905115350113950000016775282983750138505_);}
	.st67{fill:url(#SVGID_00000127724332828126194440000007117999800566905259_);}
	.st68{fill:url(#SVGID_00000022533380542143776760000013602753432075400079_);}
	.st69{fill:url(#SVGID_00000179639523924191082610000006688502628941335700_);}
	.st70{fill:url(#SVGID_00000086670903759979463930000008855024703437984957_);}
	.st71{fill:url(#SVGID_00000129207876336724633750000017473412489629614474_);}
	.st72{fill:url(#SVGID_00000142159953042315244410000017161956814582729398_);}
	.st73{fill:url(#SVGID_00000086679887366619822110000008572757869006058398_);}
</style>
<g>
	<linearGradient id="SVGID_1_" gradientUnits="userSpaceOnUse" x1="96.9699" y1="1237.6431" x2="304.5816" y2="1237.6431">
		<stop  offset="0" style="stop-color:#4E6B7D"/>
		<stop  offset="0.8935" style="stop-color:#2C5060"/>
	</linearGradient>
	<path class="st0" d="M128.93,844.29c0,0,70.3,329.82,70.3,364.12c0,34.29-30.86,129.5-21.8,196.29
		c9.06,66.8,44.46,125.66,42.02,178.89c-0.97,20.99-0.53,35.36-0.15,42.41c0.15,2.82,2.47,5.01,5.29,5.01h121.63
		c4.39,0,7.96-3.56,7.96-7.96l0,0c0-9.91-5.19-19.08-13.71-24.14c-18.92-11.24-51.44-30.93-57.86-37.13
		c-9.18-8.86-17.28-41.62-7.93-116.44c9.35-74.82,9.35-180.03,9.35-197.96s18.7-53.78,28.84-187.05
		c10.13-133.27,7.91-216.04,7.91-216.04H128.93z"/>
	
		<linearGradient id="SVGID_00000126285013809517897830000011979564643739863710_" gradientUnits="userSpaceOnUse" x1="-24.321" y1="1291.2604" x2="413.078" y2="1222.6487">
		<stop  offset="0" style="stop-color:#4E6B7D"/>
		<stop  offset="1" style="stop-color:#2C5060"/>
	</linearGradient>
	<path style="fill:url(#SVGID_00000126285013809517897830000011979564643739863710_);" d="M442.86,800.95
		c15.34,54.25,30.56,108.69,37.02,136.84c12.92,56.28,27.68,145.78,29.53,173.47c1.85,27.68-20.3,73.81-24.91,84.89
		c-4.61,11.07-91.79,323.43-83.68,342.98c0,0-3.15,4.43,57.7,50.9c1.13,0.87,2.5,1.52,3.9,1.78c32.66,6.27,26.25,39.2,4.34,39.2
		c0,0-3.56,0-33.09,0c-29.53,0-103.98-32.18-107.88-46.41c-4.6-16.76,7.87-29.53,14.33-42.45c6.46-12.92,14.27-141.16,11.5-210.37
		c-2.77-69.2,18.18-104.72,34.14-131.94c31.37-53.52-14.76-151.32-59.97-215.91c-40.12-57.32-75.89-66.69-89.2-131.92
		C363.27,851.99,442.86,800.95,442.86,800.95z"/>
	
		<linearGradient id="SVGID_00000065046632893472716940000000830026833218706333_" gradientUnits="userSpaceOnUse" x1="186.6562" y1="829.6127" x2="369.0292" y2="316.787">
		<stop  offset="0" style="stop-color:#EB957C"/>
		<stop  offset="0.4775" style="stop-color:#EB967E"/>
		<stop  offset="0.664" style="stop-color:#ED9A85"/>
		<stop  offset="0.7996" style="stop-color:#F0A191"/>
		<stop  offset="0.9098" style="stop-color:#F3ACA2"/>
		<stop  offset="1" style="stop-color:#F8B8B7"/>
	</linearGradient>
	<path style="fill:url(#SVGID_00000065046632893472716940000000830026833218706333_);" d="M442.86,800.95
		c-15.34-54.25-30.8-108.32-37.72-135.73c-13.84-54.81-35.3-337.81-35.3-337.81c-11.28-10.64-25.26-15.66-25.26-15.66
		s-169.47-60.88-220.79,14.67c-46.05,67.79-18.11,184.15-5.04,250.31c13.07,66.16-11.49,135.68,10.18,267.55
		c0,0,40.26,16.7,142.05,12.62C372.78,852.82,442.86,800.95,442.86,800.95z"/>
	<g>
		<g>
			
				<linearGradient id="SVGID_00000095323966532205799340000006738890320539614097_" gradientUnits="userSpaceOnUse" x1="445.8669" y1="324.3295" x2="346.4427" y2="613.9562">
				<stop  offset="0" style="stop-color:#CD8966"/>
				<stop  offset="1" style="stop-color:#A5643A"/>
			</linearGradient>
			<path style="fill:url(#SVGID_00000095323966532205799340000006738890320539614097_);" d="M300.28,761.69
				C346.84,692.26,362.05,631,362.05,631l-18.98-22.41c0,0-15.21,61.26-61.77,130.69L300.28,761.69z"/>
			
				<linearGradient id="SVGID_00000147194355084051486170000012573400568445703611_" gradientUnits="userSpaceOnUse" x1="115.1075" y1="253.3086" x2="123.7529" y2="493.2232">
				<stop  offset="0" style="stop-color:#CD8966"/>
				<stop  offset="1" style="stop-color:#A5643A"/>
			</linearGradient>
			<path style="fill:url(#SVGID_00000147194355084051486170000012573400568445703611_);" d="M134.94,313.64
				c-4.14,3.75-7.88,7.98-11.14,12.78c-33.16,48.82-27.95,122.81-17.56,185.12l41.11-10.77
				C101.16,405.16,117.85,344.64,134.94,313.64z"/>
			
				<linearGradient id="SVGID_00000090995014562822650930000011564943920623946120_" gradientUnits="userSpaceOnUse" x1="296.5933" y1="273.0872" x2="197.1698" y2="562.7125">
				<stop  offset="0" style="stop-color:#CD8966"/>
				<stop  offset="1" style="stop-color:#A5643A"/>
			</linearGradient>
			<path style="fill:url(#SVGID_00000090995014562822650930000011564943920623946120_);" d="M156.32,503.23
				c0,0,55.54-127.42,88.22-158.46c32.67-31.04,71.66-41.64,71.66-41.64l28.39,8.63c0,0-35.52,5.24-78.81,71.4
				c-43.29,66.16-68.61,115.17-85.77,124.97L156.32,503.23z"/>
		</g>
		<g>
			
				<linearGradient id="SVGID_00000115486120013736850690000015933608243247319713_" gradientUnits="userSpaceOnUse" x1="45.8991" y1="751.6436" x2="277.1167" y2="716.8366">
				<stop  offset="0" style="stop-color:#CD8966"/>
				<stop  offset="0.8811" style="stop-color:#A5643A"/>
			</linearGradient>
			<path style="fill:url(#SVGID_00000115486120013736850690000015933608243247319713_);" d="M134.83,591.44
				c-28.59-16.34-86.78-11.73-109.21-1.06c-7.33,3.49-15.43,7.86-21.57,16.79C0.56,634.3,3.87,687.44,29.96,773.6
				c15.41,50.89,30.92,84.24,43.22,105.47c12.51,21.59,37.15,29.68,61.92,26.64c63.71-7.84,118.89-28.84,135.51-38.18
				c2.42-1.36,4.75-3.07,6.99-5.04c0.31-20.32-45.67-51.99-78.79-127.28C182.98,699.25,163.53,607.84,134.83,591.44z"/>
			
				<linearGradient id="SVGID_00000077312673566629052440000015010612836918503577_" gradientUnits="userSpaceOnUse" x1="-38.8799" y1="478.8464" x2="316.0902" y2="817.7966">
				<stop  offset="0" style="stop-color:#CD8966"/>
				<stop  offset="1" style="stop-color:#A5643A"/>
			</linearGradient>
			<path style="fill:url(#SVGID_00000077312673566629052440000015010612836918503577_);" d="M258.43,681.29
				c0,0-40.84,60.44-59.63,53.91c33.12,75.3,79.1,106.96,78.79,127.28c16.59-14.59,28.27-44.79,34.74-75.01
				C319.69,753.17,307.43,761.34,258.43,681.29z"/>
			<g>
				
					<linearGradient id="SVGID_00000115483932417226631140000001441615010258746512_" gradientUnits="userSpaceOnUse" x1="84.8741" y1="565.8552" x2="193.0562" y2="736.1088">
					<stop  offset="0" style="stop-color:#CD8966"/>
					<stop  offset="1" style="stop-color:#A5643A"/>
				</linearGradient>
				<path style="fill:url(#SVGID_00000115483932417226631140000001441615010258746512_);" d="M169.39,536.02
					c-23.76-14.04-85.18-10.78-134.56,14.55c-11.68,15.39-22.48,31.36-26.35,39.22c-1.8,3.65-3.4,9.4-4.43,17.38
					c6.15-8.93,14.24-13.3,21.57-16.79c22.43-10.67,80.62-15.28,109.21,1.06c28.69,16.4,48.15,107.81,63.96,143.76
					c11.2,3.9,30.24-16.02,43.79-32.73C209.64,651.78,197.07,552.38,169.39,536.02z"/>
				
					<linearGradient id="SVGID_00000057844629326926740390000012918841413861842591_" gradientUnits="userSpaceOnUse" x1="102.4377" y1="505.7931" x2="196.1834" y2="705.55">
					<stop  offset="0" style="stop-color:#CD8966"/>
					<stop  offset="1" style="stop-color:#A5643A"/>
				</linearGradient>
				<path style="fill:url(#SVGID_00000057844629326926740390000012918841413861842591_);" d="M173.48,497.08
					c-41.66-11.87-82.41,1.2-106.01,17.1c-7.29,4.91-20.45,20.34-32.64,36.39c49.38-25.32,110.81-28.59,134.56-14.55
					c27.67,16.36,40.24,115.76,73.2,166.44c9.18-11.32,15.84-21.17,15.84-21.17C209.42,601.24,215.13,508.94,173.48,497.08z"/>
			</g>
		</g>
	</g>
	<g>
		
			<linearGradient id="SVGID_00000163065900527386098020000006029666614986576260_" gradientUnits="userSpaceOnUse" x1="328.9531" y1="303.8448" x2="295.1825" y2="241.78">
			<stop  offset="0" style="stop-color:#F6E2DD"/>
			<stop  offset="1" style="stop-color:#EEC6BC"/>
		</linearGradient>
		<polygon style="fill:url(#SVGID_00000163065900527386098020000006029666614986576260_);" points="334.28,231.36 322.35,286.26 
			274.61,286.26 294.3,210.47 		"/>
		
			<linearGradient id="SVGID_00000080919307726828823860000015959414522377251465_" gradientUnits="userSpaceOnUse" x1="395.1213" y1="213.4387" x2="288.7898" y2="138.1395">
			<stop  offset="0" style="stop-color:#F6E2DD"/>
			<stop  offset="1" style="stop-color:#EEC6BC"/>
		</linearGradient>
		<path style="fill:url(#SVGID_00000080919307726828823860000015959414522377251465_);" d="M356.17,111.05
			c-1.85,19-23.11,37.64-36.95,47.85c-7.41,5.47-11.79,14.09-11.79,23.3v30.06c0,3.8,0.02,7.79,0.58,11.98
			c14.35,15.65,39.42,29.24,56.71,26.22C386.26,246.68,382.52,143.84,356.17,111.05z"/>
		
			<linearGradient id="SVGID_00000120526630582630328030000007186074270599755143_" gradientUnits="userSpaceOnUse" x1="349.0788" y1="14.5159" x2="135.0125" y2="600.6013">
			<stop  offset="0" style="stop-color:#2C5060"/>
			<stop  offset="1" style="stop-color:#0C0500"/>
		</linearGradient>
		<path style="fill:url(#SVGID_00000120526630582630328030000007186074270599755143_);" d="M319.22,158.9
			c-7.41,5.47-11.79,14.09-11.79,23.3v30.06c0,13.73,0,29.84,26.26,49.53c26.26,19.69,26.85,41.18,16.11,54.3
			c-10.74,13.13-31.03,19.69-67.43,21.48s-60.87,48.93-78.17,76.38c-17.31,27.45-63.7,10.13-78.18-47.14
			c-13.73-54.3,16.11-83.55,43.56-102.05c27.45-18.5,32.82-53.11,32.82-94.29c0-41.18,15.52-85.93,66.84-100.25
			s87.11,13.13,87.11,38.19C356.35,128.32,333.7,148.22,319.22,158.9z"/>
	</g>
	<g>
		<g>
			
				<rect x="435.82" y="548.38" transform="matrix(0.7555 -0.6552 0.6552 0.7555 -243.3904 459.1563)" class="st13" width="115.17" height="14.5"/>
			
				<rect x="401.69" y="519.38" transform="matrix(0.7555 -0.6552 0.6552 0.7555 -231.5351 432.9229)" class="st14" width="125" height="14.5"/>
			<polygon class="st15" points="525.79,517.95 438.21,594 421.2,573.44 508.4,497.89 			"/>
		</g>
		<g>
			
				<linearGradient id="SVGID_00000080205349833447942950000013108574672793582776_" gradientUnits="userSpaceOnUse" x1="492.0702" y1="653.2964" x2="496.1774" y2="545.5966">
				<stop  offset="0" style="stop-color:#F6E2DD"/>
				<stop  offset="1" style="stop-color:#EEC6BC"/>
			</linearGradient>
			<path style="fill:url(#SVGID_00000080205349833447942950000013108574672793582776_);" d="M461.68,593.91
				c0.61-14.3,62.21-55.15,62.21-55.15s6.94,0.41,4.49,7.76c-2.45,7.35-9.8,9.39-10.62,13.07c-0.82,3.68-13.19,44.61-25.44,53.19
				c-8.06,5.64-26.22,17.06-26.22,17.06L461.68,593.91z"/>
			
				<linearGradient id="SVGID_00000127005328546428086840000016163304193785561273_" gradientUnits="userSpaceOnUse" x1="377.1991" y1="673.7907" x2="394.3451" y2="274.7546">
				<stop  offset="0" style="stop-color:#EB957C"/>
				<stop  offset="1" style="stop-color:#F8B8B7"/>
			</linearGradient>
			<path style="fill:url(#SVGID_00000127005328546428086840000016163304193785561273_);" d="M369.85,327.41
				c19.69,16.43,45.12,57.2,45.12,230.22c0,8.57,39.93,23.03,51.14,36.27c6.71,7.92,9.4,31.23-2.17,47.75
				c-17.03,24.32-49.66,30.15-68.39,23.57c-18.73-6.58-51.84-27.05-60.99-48.84c-9.15-21.78-18.11-85.03-26.14-115.01
				c-5.7-21.28-21.78-43.13-7.84-98.89C314.51,346.73,362.04,320.9,369.85,327.41z"/>
		</g>
	</g>
</g>
<g>
	
		<linearGradient id="SVGID_00000131360155261970005270000006004829149273073319_" gradientUnits="userSpaceOnUse" x1="515.298" y1="638.8115" x2="644.5815" y2="330.5204">
		<stop  offset="0.1444" style="stop-color:#CD8966"/>
		<stop  offset="0.444" style="stop-color:#B97650"/>
		<stop  offset="0.7579" style="stop-color:#AA6940"/>
		<stop  offset="1" style="stop-color:#A5643A"/>
	</linearGradient>
	<path style="fill:url(#SVGID_00000131360155261970005270000006004829149273073319_);" d="M568.66,330.65
		c-55.71,72.69-93.83,251.58-68.63,312.76c13.32,32.35,74.24,54.76,74.24,54.76s37.53-77.69,37.53-190.04
		C611.8,395.78,568.66,330.65,568.66,330.65z"/>
	
		<linearGradient id="SVGID_00000093177394829015969820000010945139985123304591_" gradientUnits="userSpaceOnUse" x1="1049.8284" y1="591.0618" x2="848.444" y2="469.2369">
		<stop  offset="0.1444" style="stop-color:#CD8966"/>
		<stop  offset="0.444" style="stop-color:#B97650"/>
		<stop  offset="0.7579" style="stop-color:#AA6940"/>
		<stop  offset="1" style="stop-color:#A5643A"/>
	</linearGradient>
	<path style="fill:url(#SVGID_00000093177394829015969820000010945139985123304591_);" d="M958.88,343.3
		c53,50.03,89.63,238.49,72.48,276.68c-17.15,38.19-114.92,83.07-114.92,83.07s-18.87-5.91-18.87-90.08
		C897.57,498.66,958.88,343.3,958.88,343.3z"/>
	
		<linearGradient id="SVGID_00000088135295690557005930000013112472825994363547_" gradientUnits="userSpaceOnUse" x1="864.15" y1="175.537" x2="804.6714" y2="189.2628">
		<stop  offset="0" style="stop-color:#F6E2DD"/>
		<stop  offset="0.8423" style="stop-color:#EEC6BC"/>
	</linearGradient>
	<path style="fill:url(#SVGID_00000088135295690557005930000013112472825994363547_);" d="M800.52,249.92
		c17.99,0,35.06-18.45,37.83-47.98c2.77-29.53-3.23-69.66-3.23-69.66h-45.21v117.64H800.52z"/>
	
		<linearGradient id="SVGID_00000057835160219340926170000003136063299378006958_" gradientUnits="userSpaceOnUse" x1="632.7484" y1="265.2349" x2="798.0311" y2="196.6055">
		<stop  offset="0" style="stop-color:#F6E2DD"/>
		<stop  offset="1" style="stop-color:#EEC6BC"/>
	</linearGradient>
	<path style="fill:url(#SVGID_00000057835160219340926170000003136063299378006958_);" d="M812.05,196.4
		c-1.98,30.28-7.28,78.43-6.41,104.26c0,0-1.89,6-50.8,6c-48.9,0-46.13-12.46-46.13-12.46s9.23-57.67,10.61-69.66
		c1.38-12-29.53-29.53-35.06-64.13c-5.54-34.6,53.52-45.67,76.12-45.67C789.91,114.74,816.67,125.82,812.05,196.4z"/>
	
		<linearGradient id="SVGID_00000055692540531667479580000017129624596691083145_" gradientUnits="userSpaceOnUse" x1="779.5182" y1="158.9937" x2="834.4218" y2="201.887">
		<stop  offset="0.297" style="stop-color:#F6E2DD"/>
		<stop  offset="0.316" style="stop-color:#F6E1DC"/>
		<stop  offset="0.8251" style="stop-color:#EEC6BC"/>
	</linearGradient>
	<path style="fill:url(#SVGID_00000055692540531667479580000017129624596691083145_);" d="M818.38,173.19
		c-6.19-14.19-16.27-5.25-11.49,17.35c4.28,20.28,13.24,16.06,15.1,6.09C823.07,190.8,821.38,180.05,818.38,173.19z"/>
	
		<linearGradient id="SVGID_00000088134317576640032680000000135908068904234686_" gradientUnits="userSpaceOnUse" x1="1040.7108" y1="938.8372" x2="629.2408" y2="463.9689">
		<stop  offset="0.1444" style="stop-color:#CD8966"/>
		<stop  offset="0.444" style="stop-color:#B97650"/>
		<stop  offset="0.7579" style="stop-color:#AA6940"/>
		<stop  offset="1" style="stop-color:#A5643A"/>
	</linearGradient>
	<path style="fill:url(#SVGID_00000088134317576640032680000000135908068904234686_);" d="M568.66,330.65
		c59.77,224.99-0.9,249.22,5.61,367.52c0,0,5.64,145.95,12.27,164.32c6.63,18.36,24.04,28.31,24.87,42.4
		c0.2,3.35,1.19,19.54,2.53,42.52c25.95,17.08,75.54,28.21,142.93,28.56l3.23,0.04l0,0c65.9,0,122.04-19.13,145.65-28.52
		c3.37-27.82,5.59-46.15,5.59-46.15s31.95-42.09,38.19-72.48c6.24-30.4-7.79-63.91-12.1-95.86c-4.31-31.95-20.63-35.85-21.41-56.89
		c-0.78-21.04,9.35-164.45,10.91-183.15c1.56-18.71,31.95-149.64,31.95-149.64c-14.19-12.28-42.44-27.62-59.02-27.62
		c-7.62,0-256.47-11.53-256.47-11.53C610.53,317.49,577.84,318.67,568.66,330.65z"/>
	
		<linearGradient id="SVGID_00000053531336213860965310000016813148070732370060_" gradientUnits="userSpaceOnUse" x1="763.1414" y1="245.4881" x2="758.1689" y2="356.1247">
		<stop  offset="0" style="stop-color:#CD8966"/>
		<stop  offset="0.3502" style="stop-color:#B97650"/>
		<stop  offset="0.717" style="stop-color:#AA6940"/>
		<stop  offset="1" style="stop-color:#A5643A"/>
	</linearGradient>
	<path style="fill:url(#SVGID_00000053531336213860965310000016813148070732370060_);" d="M681.66,298.56
		c25.96,64.73,59.35,87,59.35,87c4.11-2.32,8.16-4.79,12.15-7.34c37.27-24.33,71.45-63.41,87.52-83.21
		c-17.63-13.32-44.39,7.5-82.6,7.5c-40.6,0-48.53-13.56-57.67-13.38c-6.76,0.13-15.34,5.6-19.37,8.45
		C681.23,297.92,681.5,298.18,681.66,298.56z"/>
	
		<linearGradient id="SVGID_00000181082088102257787070000015880464620163819954_" gradientUnits="userSpaceOnUse" x1="619.1294" y1="393.3347" x2="834.9177" y2="393.3347">
		<stop  offset="0" style="stop-color:#CD8966"/>
		<stop  offset="0.3211" style="stop-color:#BB7852"/>
		<stop  offset="0.7153" style="stop-color:#AB6940"/>
		<stop  offset="1" style="stop-color:#A5643A"/>
	</linearGradient>
	<path style="fill:url(#SVGID_00000181082088102257787070000015880464620163819954_);" d="M753.46,446.45
		c-71.19-15.23-105.95-114.56-110.07-142.3l0,0c0,0-6.33,2.42-18.38,6.39c-9.09,2.99-5.46,27.98,39.81,101.27s97.87,70.7,97.87,70.7
		C756.88,480.78,757.72,461.21,753.46,446.45z"/>
	
		<linearGradient id="SVGID_00000119802191765257568210000010230925721720049049_" gradientUnits="userSpaceOnUse" x1="641.2862" y1="391.126" x2="986.2617" y2="391.126">
		<stop  offset="0.1444" style="stop-color:#CD8966"/>
		<stop  offset="0.3561" style="stop-color:#C07D57"/>
		<stop  offset="0.7463" style="stop-color:#AC6B42"/>
		<stop  offset="1" style="stop-color:#A5643A"/>
	</linearGradient>
	<path style="fill:url(#SVGID_00000119802191765257568210000010230925721720049049_);" d="M882.18,299.74
		c-61.92,150.37-128.72,146.71-128.72,146.71c4.26,14.76,3.42,34.33,9.22,36.06c82.33-21.99,137.94-142.26,141.82-166.83
		C905.91,306.73,898.89,304.04,882.18,299.74z"/>
	
		<linearGradient id="SVGID_00000060032492299415793170000001553311391512412822_" gradientUnits="userSpaceOnUse" x1="579.6494" y1="369.2764" x2="860.3608" y2="369.2764">
		<stop  offset="0" style="stop-color:#CD8966"/>
		<stop  offset="0.9424" style="stop-color:#A5643A"/>
	</linearGradient>
	<path style="fill:url(#SVGID_00000060032492299415793170000001553311391512412822_);" d="M681.66,298.56
		c-1.8-4.5-6.43-6.45-11.27-6.45c-9.75,0-25.27,0.53-27.18,5.33c-3.61,9.09,30.45,131.94,110.26,149.01
		c-5.23-18.13-12.46-35.5-12.46-60.9C741.01,385.55,707.61,363.29,681.66,298.56z"/>
	
		<linearGradient id="SVGID_00000048485294854762351590000010974197833138590089_" gradientUnits="userSpaceOnUse" x1="738.2487" y1="363.825" x2="977.6747" y2="363.825">
		<stop  offset="0" style="stop-color:#CD8966"/>
		<stop  offset="0.6197" style="stop-color:#B16F47"/>
		<stop  offset="1" style="stop-color:#A5643A"/>
	</linearGradient>
	<path style="fill:url(#SVGID_00000048485294854762351590000010974197833138590089_);" d="M850.35,282.67
		c0,0-53.06,71.97-109.34,102.88c0,25.4,7.23,42.77,12.46,60.9c0,0,66.8,3.66,128.72-146.71
		C885.41,291.9,854.67,276.34,850.35,282.67z"/>
	<g>
		<path class="st29" d="M756.86,975.96c1.09,0.01,2.13,0.04,3.23,0.04c-0.43-2.94-0.85-5.79-1.24-8.43
			C758.86,967.57,758.13,970.63,756.86,975.96z"/>
		
			<linearGradient id="SVGID_00000054232504663214620670000009389748068369595552_" gradientUnits="userSpaceOnUse" x1="420.1173" y1="1289.2029" x2="904.5683" y2="1289.2029">
			<stop  offset="0" style="stop-color:#2C5060"/>
			<stop  offset="1" style="stop-color:#0C0500"/>
		</linearGradient>
		<path style="fill:url(#SVGID_00000054232504663214620670000009389748068369595552_);" d="M622.18,1180.08
			c-4.97,20.72-24.87,28.18-22.38,99.47c2.49,71.29,24.04,180.7,17.41,193.96c-6.63,13.26-19.89,36.47-19.89,46.42
			c0,9.95,20.35,83.96,23.21,95.32c3.26,12.96,14.09,15.74,19.89,15.74c5.8,0,40.54,0,50.49,0c9.95,0,21.46-11.86,16.46-25.59
			c-2.75-7.55-13.16-14.06-17.84-25.61c-11.98-29.6-25.52-84.73-28.39-92.19c-4.14-10.78,9.95-81.23,33.16-156.66
			c23.21-75.43,17.41-117.71,16.58-138.43c-0.73-18.21,36.84-177.99,45.99-216.55c-67.38-0.35-116.98-11.48-142.93-28.56
			C618.21,1020.98,625.97,1164.29,622.18,1180.08z"/>
		
			<linearGradient id="SVGID_00000117653124476276788830000001547532909446261154_" gradientUnits="userSpaceOnUse" x1="520.8627" y1="1289.2411" x2="1003.9613" y2="1289.2411">
			<stop  offset="0" style="stop-color:#2C5060"/>
			<stop  offset="0.1746" style="stop-color:#2A4C5A"/>
			<stop  offset="0.402" style="stop-color:#253F4A"/>
			<stop  offset="0.6586" style="stop-color:#1C2A2F"/>
			<stop  offset="0.9347" style="stop-color:#0F0D0A"/>
			<stop  offset="1" style="stop-color:#0C0500"/>
		</linearGradient>
		<path style="fill:url(#SVGID_00000117653124476276788830000001547532909446261154_);" d="M760.09,976.01
			c9.53,65.2,28.25,197.33,27.08,222.37c-1.56,33.51-5.99,54.45-23.13,122.25c-17.15,67.8,0.78,141.85,3.12,183.93
			c2.34,42.09-10.91,63.91-16.37,81.05c-4.16,13.08,1.2,32.63,3.98,41.15c0.83,2.54,3.19,4.23,5.86,4.23h125.45
			c2.12,0,3.76-1.83,3.62-3.94c-0.84-12.39-5.99-17.14-17.33-23.51c-12.47-7.01-42.09-20.26-50.66-47.54
			c-8.57-27.28,44.42-158.21,55.34-213.55c10.91-55.34-5.46-100.54-3.12-126.48c1.75-19.41,21.82-185.86,31.82-268.49
			C882.14,956.88,825.99,976.01,760.09,976.01L760.09,976.01z"/>
	</g>
	<g>
		<polygon class="st14" points="782.38,840.83 771.29,761.06 752.68,765.2 763.77,844.97 		"/>
		
			<linearGradient id="SVGID_00000087404316351482860940000015458378525793417859_" gradientUnits="userSpaceOnUse" x1="615.1505" y1="303.7025" x2="626.3816" y2="408.1514">
			<stop  offset="0" style="stop-color:#4E6B7D"/>
			<stop  offset="1" style="stop-color:#2C5060"/>
		</linearGradient>
		<path style="fill:url(#SVGID_00000087404316351482860940000015458378525793417859_);" d="M637.06,306.57
			c-15.11,5.48-29.83,8.69-41.93,11.87l11.79,108.29l39.17-15.93L637.06,306.57z"/>
		
			<linearGradient id="SVGID_00000020396836165213355400000009537249496974070181_" gradientUnits="userSpaceOnUse" x1="542.5198" y1="637.54" x2="916.7109" y2="637.54">
			<stop  offset="0" style="stop-color:#4E6B7D"/>
			<stop  offset="1" style="stop-color:#2C5060"/>
		</linearGradient>
		<path style="fill:url(#SVGID_00000020396836165213355400000009537249496974070181_);" d="M629.21,531.34
			c-24.94-55.54-67.8-75.03-80.27-48.82c-10.91,26.21-22.49,111.74-21.82,170.97c0.55,48.79,12.61,92.94,19.72,114.85
			c3.24,9.99,10.33,18.42,19.94,22.64c44.59,19.6,108.7,11.91,117.77,9.96C720.6,785.58,663.5,607.71,629.21,531.34z"/>
		
			<linearGradient id="SVGID_00000133490419185888661040000009075811955747775406_" gradientUnits="userSpaceOnUse" x1="559.7635" y1="646.8703" x2="762.3998" y2="564.7764">
			<stop  offset="0" style="stop-color:#4E6B7D"/>
			<stop  offset="1" style="stop-color:#2C5060"/>
		</linearGradient>
		<path style="fill:url(#SVGID_00000133490419185888661040000009075811955747775406_);" d="M646.09,410.79
			c-28.1-3.24-86.24,45.52-97.15,71.73c12.47-26.21,55.34-6.73,80.27,48.82c34.29,76.37,91.39,254.24,55.34,269.61
			c10.13-2.18,73.9-26.7,87.29-65.25C788.2,688.56,702.06,417.24,646.09,410.79z"/>
		
			<linearGradient id="SVGID_00000174592878757188156980000017533286605720943032_" gradientUnits="userSpaceOnUse" x1="735.8082" y1="717.5798" x2="796.1902" y2="697.0308">
			<stop  offset="0" style="stop-color:#4E6B7D"/>
			<stop  offset="1" style="stop-color:#2C5060"/>
		</linearGradient>
		<path style="fill:url(#SVGID_00000174592878757188156980000017533286605720943032_);" d="M797.55,688.56
			c0,0-9.27-11.57-28.64-12.62c5.1,27.47,6.58,49.22,2.92,59.75C793.66,704.93,797.55,688.56,797.55,688.56z"/>
		
			<linearGradient id="SVGID_00000021115975182674282670000005074924029107442827_" gradientUnits="userSpaceOnUse" x1="822.5751" y1="660.8427" x2="644.0011" y2="440.7136">
			<stop  offset="0" style="stop-color:#4E6B7D"/>
			<stop  offset="1" style="stop-color:#2C5060"/>
		</linearGradient>
		<path style="fill:url(#SVGID_00000021115975182674282670000005074924029107442827_);" d="M787.92,681.2
			c-29.64-166.82-90.41-287.3-123.38-260.17v0c11.49,10.7,23.56,28.99,35.32,51.63c26.61,34.83,55.09,116.13,73.6,203.84
			C779.4,677.4,784.21,679.19,787.92,681.2z"/>
		<path class="st14" d="M802.21,687.38c-9.4-10.15-21.9-9.44-22.14-9.43c11.73,3.59,17.49,10.61,17.49,10.61s-2.01,8.33-11.02,24.21
			c-0.11,13.45-9.9,32.23-24.64,40.39c-5.36,6.74-12.04,12.85-19.25,18.31C779.27,777.36,832.13,719.69,802.21,687.38z"/>
		<g>
			
				<linearGradient id="SVGID_00000119803218059889927310000001168152927071014279_" gradientUnits="userSpaceOnUse" x1="435.8987" y1="690.734" x2="625.3967" y2="690.734">
				<stop  offset="0" style="stop-color:#4E6B7D"/>
				<stop  offset="0.4537" style="stop-color:#416172"/>
				<stop  offset="1" style="stop-color:#2C5060"/>
			</linearGradient>
			<path style="fill:url(#SVGID_00000119803218059889927310000001168152927071014279_);" d="M655.36,712.5
				c-3.04-12.47-7.05-25.18-12.43-36.96c-0.67-1.47-2.16-2.36-3.77-2.25c-17,1.06-110.68,5.99-112.08-14.18
				c0,0-11.67,9.74-12.92,13.49c-1.74,5.2-1.57,15.28-0.19,27.07C518.37,725.22,616.09,728.77,655.36,712.5z"/>
			
				<linearGradient id="SVGID_00000119102166417277490040000013672085741407733168_" gradientUnits="userSpaceOnUse" x1="513.9694" y1="744.5744" x2="664.4907" y2="744.5744">
				<stop  offset="0" style="stop-color:#4E6B7D"/>
				<stop  offset="1" style="stop-color:#2C5060"/>
			</linearGradient>
			<path style="fill:url(#SVGID_00000119102166417277490040000013672085741407733168_);" d="M655.36,712.5
				c-39.27,16.27-136.98,12.72-141.39-12.84c3.11,26.58,12.42,61.86,20.03,69.57c0.27,0.28,0.56,0.47,0.9,0.66
				c5.41,2.97,54.47,28.44,126.33,16.38c1.9-0.32,3.31-1.99,3.26-3.92C664.25,772.68,662.87,743.37,655.36,712.5z"/>
		</g>
	</g>
	
		<linearGradient id="SVGID_00000058584550834739203240000011126026640154985889_" gradientUnits="userSpaceOnUse" x1="786.5795" y1="-5.6223" x2="719.4515" y2="287.7517">
		<stop  offset="0" style="stop-color:#A5643A"/>
		<stop  offset="1" style="stop-color:#0C0500"/>
	</linearGradient>
	<path style="fill:url(#SVGID_00000058584550834739203240000011126026640154985889_);" d="M655.52,119.54
		c16.7-17.76,6.59-29.65,1.97-46.59c-5.07-18.59,8.45-34.21,30.41-31.26c19.8,2.67,22.22-12.48,29.15-19.85
		c13.09-13.94,28.57-4.48,34.65,0.57c7.46,6.2,12.93,8.63,19.46,2.97c11.48-9.96,25.19-12,30.62-0.23
		c4.96,10.75,8.85,13.53,17.23,10.75c17.06-5.66,25.82-0.51,29.86,4.45c11.2,13.76,0.53,27.25,3.85,39.41
		c2.58,9.46,10.36,16.13,15.32,24.56c6.54,11.12,4.53,26.65-4.61,35.69c-9.14,9.04-24.53,10.73-35.36,3.87
		c-2.24-1.42-4.74-3.23-7.25-2.43c-2.27,0.72-3.44,3.36-3.47,5.77c-0.03,2.41,0.78,4.74,1.13,7.12c1.11,7.47-2.76,15.44-9.28,19.12
		s-15.25,2.83-20.95-2.04c-5.45-4.66-8.94-12.84-16.04-13.59c-7.71-0.81-12.65,7.61-18.05,13.24
		c-13.81,14.42-28.68,12.74-44.72-2.62c-15.63-14.98-20.71-2.28-36.14-2.1C654.55,166.57,635.56,140.76,655.52,119.54z"/>
</g>
<g>
	<g>
		
			<linearGradient id="SVGID_00000005971690567038824540000011419502861418803351_" gradientUnits="userSpaceOnUse" x1="1092.0146" y1="327.3034" x2="1095.9893" y2="564.2029">
			<stop  offset="6.691420e-03" style="stop-color:#4E6B7D"/>
			<stop  offset="1" style="stop-color:#2C5060"/>
		</linearGradient>
		<path style="fill:url(#SVGID_00000005971690567038824540000011419502861418803351_);" d="M1084.14,333.95
			c-25.85,27.76-40.3,95.84-47.88,165.18c21.82,20.59,74.1,37.91,114.88,39.59C1165.16,474.77,1118.49,297.07,1084.14,333.95z"/>
		
			<linearGradient id="SVGID_00000106117745180938590070000004713865414619828900_" gradientUnits="userSpaceOnUse" x1="948.7445" y1="715.1868" x2="1155.5194" y2="719.7065">
			<stop  offset="0" style="stop-color:#F6E2DD"/>
			<stop  offset="1" style="stop-color:#EEC6BC"/>
		</linearGradient>
		<path style="fill:url(#SVGID_00000106117745180938590070000004713865414619828900_);" d="M1030.67,684.67
			c3.97,32.58,25.4,117.75,26.1,137.05c0.7,19.3-2.46,37.55-3.86,43.87c-1.4,6.32-7.02,35.79-5.61,40.36
			c1.4,4.56,18.6,24.56,22.46,27.02c3.86,2.46,14.39,3.16,14.39,3.16h39.14c0,0-1.89-236.63-1.89-260.18
			c0-23.55,28.14-131.21,28.14-131.21c0.61-1.87,1.14-3.88,1.61-6.02c-40.78-1.68-93.06-19-114.88-39.59
			C1027.43,579.8,1027.92,662.16,1030.67,684.67z"/>
	</g>
	<g>
		
			<linearGradient id="SVGID_00000055669422188036398900000016230650523999971462_" gradientUnits="userSpaceOnUse" x1="1629.5039" y1="778.4268" x2="1416.572" y2="778.4268">
			<stop  offset="0" style="stop-color:#F6E2DD"/>
			<stop  offset="1" style="stop-color:#EEC6BC"/>
		</linearGradient>
		<path style="fill:url(#SVGID_00000055669422188036398900000016230650523999971462_);" d="M1529.72,622.32
			c0.79-19.77,5.03-58.04,5.99-100.61c-32.82-11.46-81.85-0.44-109.97,16.17c11.04,45.32,25.25,107.24,23.96,120.61
			c-2.08,21.62-5.2,49.04,9.35,112.43c14.55,63.39,26.84,118.55,26.84,125.26s-7.56,9.79-16.23,25.74
			c-8.67,15.95-1.12,27.14,0.28,35.82c1.4,8.67-5.32,28.54-5.88,39.46c-0.56,10.91,7.56,12.03,12.03,9.79
			c4.48-2.24,8.39-5.88,8.68-16.51c0.28-10.63,3.92-15.67,4.48-16.51c0.56-0.84,7.56,5.88,8.39,9.51
			c0.84,3.64-5.32,28.54-6.72,30.78c-1.4,2.24-19.03,5.04-24.63,11.47c-5.6,6.44-3.92,12.59-1.12,13.71
			c2.8,1.12,22.95-0.28,24.91-1.4c1.96-1.12,17.91-13.15,22.39-20.15c4.48-7,13.08-30.84,16.2-40.2
			c3.12-9.35,11.43-86.25,11.43-187.05C1540.11,689.86,1527.64,674.27,1529.72,622.32z"/>
		
			<linearGradient id="SVGID_00000131342091126031709320000007360730306488099509_" gradientUnits="userSpaceOnUse" x1="1474.6188" y1="317.0573" x2="1474.6188" y2="745.3282">
			<stop  offset="0" style="stop-color:#4E6B7D"/>
			<stop  offset="0.4864" style="stop-color:#2C5060"/>
		</linearGradient>
		<path style="fill:url(#SVGID_00000131342091126031709320000007360730306488099509_);" d="M1535.71,521.7
			c1.56-69.34-5.6-150.09-50.67-181l-71.7,147.56c0,0,5.6,21.65,12.41,49.61C1453.86,521.27,1502.89,510.24,1535.71,521.7z"/>
	</g>
	<g>
		
			<linearGradient id="SVGID_00000003788045121918834560000008773295931336983181_" gradientUnits="userSpaceOnUse" x1="1347.0809" y1="328.4002" x2="1252.6833" y2="196.8307">
			<stop  offset="0" style="stop-color:#F6E2DD"/>
			<stop  offset="1" style="stop-color:#EEC6BC"/>
		</linearGradient>
		<path style="fill:url(#SVGID_00000003788045121918834560000008773295931336983181_);" d="M1330.24,235.54v50.31l-88.44-2.5v-77.82
			c0,0,3.13-40.63,44.22-40.63S1330.24,235.54,1330.24,235.54z"/>
		
			<linearGradient id="SVGID_00000018932331828016845570000018246505699966121892_" gradientUnits="userSpaceOnUse" x1="1183.942" y1="182.5149" x2="1283.7202" y2="198.6555">
			<stop  offset="0" style="stop-color:#F6E2DD"/>
			<stop  offset="1" style="stop-color:#EEC6BC"/>
		</linearGradient>
		<path style="fill:url(#SVGID_00000018932331828016845570000018246505699966121892_);" d="M1241.8,205.54v45c0,0-5,0-8.44,0
			c-3.44,0-21.88-7.81-18.44-58.44c3.44-50.63,13.23-62.5,13.23-62.5l1.11,66.91c0.02,1.37,1.14,2.46,2.5,2.46h5.35
			c0,0-0.31-15.63,9.06-22.19c9.38-6.56,16.56,3.75,15.31,17.5c-1.25,13.75-5.31,20.94-11.88,20.94
			C1243.05,215.23,1241.8,205.54,1241.8,205.54"/>
		
			<linearGradient id="SVGID_00000103234469896424315690000002111362681495610553_" gradientUnits="userSpaceOnUse" x1="1276.8759" y1="58.5324" x2="1316.4229" y2="228.0199">
			<stop  offset="0" style="stop-color:#4E6B7D"/>
			<stop  offset="1" style="stop-color:#2C5060"/>
		</linearGradient>
		<path style="fill:url(#SVGID_00000103234469896424315690000002111362681495610553_);" d="M1362.43,98.97
			c-13.13-17.81-48.13-25.31-54.38-30.94c-6.25-5.63-14.34-6.88-26.88-0.94c-11.86,5.61-25,13.75-25,13.75s7.81-16.25,5.45-18.13
			c-2.36-1.88-14.52,11.25-14.83,15c-0.31,3.75,0,9.69,0,9.69c-8.75-4.69-28.44,1.56-32.3,10.94c-3.86,9.38,13.65,26.56,13.65,31.25
			l1.11,66.91c0.02,1.37,1.14,2.46,2.5,2.46h5.35c0,0-0.31-15.63,9.06-22.19c3.49-2.45,6.68-2.54,9.24-1l0,0l0,0
			c0.05,0.03,13.57,8.19,14.99,42.72c0.09,2.16,0.72,4.29,2.25,5.82c27.78,27.74,57.58,11.21,57.58,11.21
			c0-8.44,7.81-19.38,28.75-45.47S1375.55,116.78,1362.43,98.97z"/>
	</g>
	
		<linearGradient id="SVGID_00000018924688018166136910000012446994250972482749_" gradientUnits="userSpaceOnUse" x1="1284.5884" y1="285.2467" x2="1284.5884" y2="968.0921">
		<stop  offset="0" style="stop-color:#4E6B7D"/>
		<stop  offset="1" style="stop-color:#2C5060"/>
	</linearGradient>
	<path style="fill:url(#SVGID_00000018924688018166136910000012446994250972482749_);" d="M1422.87,895.48
		c1.19-16.74,1.9-31.66,1.9-43.5c0-69.62,5.2-367.86,12.47-380.33c7.27-12.47,37.41-78.98,47.8-130.93
		c-177.09-121.43-378.25-36.37-400.9-6.75c38.56,60.64,46.26,169.8,50.12,266.11c2.7,67.47-4.68,180.94-9.35,293.18
		C1197.96,928.43,1357.88,935.98,1422.87,895.48z"/>
	
		<linearGradient id="SVGID_00000152963648274254061410000005870040351482810501_" gradientUnits="userSpaceOnUse" x1="1764.3895" y1="1849.2791" x2="573.5126" y2="399.6519">
		<stop  offset="0" style="stop-color:#A5643A"/>
		<stop  offset="1" style="stop-color:#0C0500"/>
	</linearGradient>
	<path style="fill:url(#SVGID_00000152963648274254061410000005870040351482810501_);" d="M1422.87,895.48
		c-64.99,40.51-224.91,32.96-297.96-2.24c-1.99,47.99-3.5,95.75-3.5,139.6c0,146.4-19.26,236.29,6.42,326.19
		c25.68,89.89,57.81,178.35,53.11,190.68c-7.03,18.47-21.59,48.16-37.44,52.44c-13.58,8.94-6.87,28.85,4.12,28.85
		c10.99,0,30,0,43.29,0c19.38,0,47.69-30.21,55.37-38.6c12.72-13.91-2.48-32.84-8.43-48.87c-5.95-16.03,0.92-130.98,1.83-181.36
		c0.92-50.38-15.57-100.75-20.15-120.91c-4.58-20.15,47.19-260.85,47.19-260.85l5.4-0.91c0,0,30.55,184.47,30.55,210.97
		c0,26.5-8.57,59.23-28.06,137.17c-19.48,77.94,8.7,182.86,8.7,224.93v70.9c0,4.16,3.37,7.53,7.53,7.53h106.73
		c5.12,0,8.77-4.98,7.18-9.85c-1.26-3.86-3.34-8.6-6.77-13.73c-8.72-13.09-55.31-21.8-57.39-31.15
		c-2.08-9.35,35.33-139.25,53-227.58c17.67-88.33-3.38-159.77,1.82-206.53C1399.72,1103.35,1417.08,977.12,1422.87,895.48z"/>
	<g>
		<g>
			
				<linearGradient id="SVGID_00000145740799544581388460000014059664030438524552_" gradientUnits="userSpaceOnUse" x1="1437.2925" y1="313.6929" x2="1408.4344" y2="690.9054">
				<stop  offset="0" style="stop-color:#2C5060"/>
				<stop  offset="0.229" style="stop-color:#26434F"/>
				<stop  offset="0.6803" style="stop-color:#182023"/>
				<stop  offset="1" style="stop-color:#0C0500"/>
			</linearGradient>
			<path style="fill:url(#SVGID_00000145740799544581388460000014059664030438524552_);" d="M1413.59,302.69
				c14.85,9.18,0.1,255.81-16.92,368.23c-0.46,3.01,1.06,5.95,3.78,7.33l11,5.59c4.26,2.17,9.4-0.42,10.17-5.14
				c7.96-48.66,42.96-270.95,32.18-357.15C1440.44,314.23,1427.01,308,1413.59,302.69z"/>
			<polygon class="st50" points="1398.02,793.2 1410.74,683.49 1404.34,680.23 1391.7,789.16 			"/>
		</g>
		<path class="st50" d="M1132.8,745.27l1.56-75.48c0.68-22.54,0.47-40.66,0.47-40.66l-39.85,120.23L1132.8,745.27z"/>
		<g>
			
				<linearGradient id="SVGID_00000099637506862887485030000005868519272761360538_" gradientUnits="userSpaceOnUse" x1="902.0691" y1="829.1133" x2="1282.8612" y2="829.1133">
				<stop  offset="0" style="stop-color:#2C5060"/>
				<stop  offset="0.229" style="stop-color:#26434F"/>
				<stop  offset="0.6803" style="stop-color:#182023"/>
				<stop  offset="1" style="stop-color:#0C0500"/>
			</linearGradient>
			<path style="fill:url(#SVGID_00000099637506862887485030000005868519272761360538_);" d="M1075.42,767.32
				c-1.97-15.55-5.17-24.32,1.26-34.28c6.43-9.96,34.49-34.95,57.09-42.06c18.93-5.95,131.22-29.5,200.02-32.46
				c20.88-0.9,39.59,12.79,44.99,32.98c5.59,20.87,12.1,70.27,21.49,106.77c9.92,38.58,34.23,116.9,18.06,149.21
				c-12.43,24.84-139.49,38.78-234.44,49.66c-49.56,5.68-69.1,2.73-72.74-15.41C1100.65,929.39,1075.42,767.32,1075.42,767.32z"/>
			
				<linearGradient id="SVGID_00000163040494787724752640000009588527072487063432_" gradientUnits="userSpaceOnUse" x1="1023.5701" y1="818.4769" x2="1766.7208" y2="818.4769">
				<stop  offset="0" style="stop-color:#2C5060"/>
				<stop  offset="0.229" style="stop-color:#26434F"/>
				<stop  offset="0.6803" style="stop-color:#182023"/>
				<stop  offset="1" style="stop-color:#0C0500"/>
			</linearGradient>
			<path style="fill:url(#SVGID_00000163040494787724752640000009588527072487063432_);" d="M1369.02,792.29
				c-5.61-26.89-10.08-55.31-13.01-75.74c-2.46-17.16-17.78-29.43-35.07-28.26c-75.8,5.12-236.8,35.99-244.25,44.74
				c-6.42,9.96-3.23,18.73-1.26,34.28c0,0,0,0.03,0,0.03c3.21-1.51,6.77-2.38,10.57-2.35c97.31,0.71,183.31-21.96,227.53-36.19
				c16.48-5.3,33.86,5.03,36.95,22.06c4.14,22.81,10.71,54.63,19.95,86.56c9.21,31.86,15.72,63.89,14.85,77.59
				c-0.99,15.53-11.25,30.2-26.41,33.72c16.43-2.85,29.85-9.74,34.44-21.04C1403.84,901.73,1379.57,842.85,1369.02,792.29z"/>
			
				<linearGradient id="SVGID_00000121248261535702908330000015939434740145816232_" gradientUnits="userSpaceOnUse" x1="716.058" y1="854.6034" x2="1307.299" y2="854.6034">
				<stop  offset="0" style="stop-color:#2C5060"/>
				<stop  offset="0.229" style="stop-color:#26434F"/>
				<stop  offset="0.6803" style="stop-color:#182023"/>
				<stop  offset="1" style="stop-color:#0C0500"/>
			</linearGradient>
			<path style="fill:url(#SVGID_00000121248261535702908330000015939434740145816232_);" d="M1061.16,791.65
				c3.72,51.31,20.56,136.85,28.14,173.64c2.1,10.21,11.45,17.22,21.85,16.45c44.97-3.36,164.06-13.59,247.71-33
				c15.16-3.52,25.42-18.19,26.41-33.72c0.87-13.7-5.64-45.73-14.85-77.59c-9.23-31.93-15.81-63.75-19.95-86.56
				c-3.09-17.03-20.47-27.36-36.95-22.06c-44.22,14.23-130.22,36.9-227.53,36.19C1071.55,764.89,1060.12,777.25,1061.16,791.65z"/>
			
				<linearGradient id="SVGID_00000022533525438326221890000008390024705701933995_" gradientUnits="userSpaceOnUse" x1="903.2463" y1="753.3867" x2="1493.4893" y2="963.297">
				<stop  offset="0" style="stop-color:#2C5060"/>
				<stop  offset="0.229" style="stop-color:#26434F"/>
				<stop  offset="0.6803" style="stop-color:#182023"/>
				<stop  offset="1" style="stop-color:#0C0500"/>
			</linearGradient>
			<path style="fill:url(#SVGID_00000022533525438326221890000008390024705701933995_);" d="M1060,801.89
				c3.52,48.55,19.45,129.48,26.63,164.29c1.99,9.66,10.84,16.29,20.67,15.56c42.55-3.18,155.23-12.85,234.37-31.22
				c14.34-3.33,24.13-16.49,23.44-31.19c-0.84-17.88-3.78-43.98-12.5-74.13c-8.74-30.22-14.96-60.32-18.87-81.9
				c-2.92-16.11-19.37-25.89-34.96-20.88c-41.84,13.46-123.21,34.91-215.28,34.24C1069.83,776.56,1059.01,788.26,1060,801.89z"/>
		</g>
	</g>
</g>
<g>
	<g>
		
			<linearGradient id="SVGID_00000051366144410070356670000005659150619580248496_" gradientUnits="userSpaceOnUse" x1="2135.9963" y1="1976.7146" x2="1672.0493" y2="798.331">
			<stop  offset="0" style="stop-color:#EB957C"/>
			<stop  offset="1" style="stop-color:#883A3C"/>
		</linearGradient>
		<path style="fill:url(#SVGID_00000051366144410070356670000005659150619580248496_);" d="M1899.95,764.71
			c8.67,38.71,17.24,87.87,16.85,139.19c-0.78,102.65-43.64,286.58-45.2,310.74c-1.56,24.16,3.12,116.13-11.69,166.79
			c-14.81,50.66-51.44,159.77-42.86,186.27c7.84,24.22,41.07,29.86,40.77,55.52c-0.05,4.29-3.53,7.79-7.82,7.79h-85.95
			c-4.3,0-7.79-3.49-7.79-7.79v-18.11c0-18.7,14.56-55.36,17.93-87.29c4.68-44.42-13.52-111.93,3.9-192.5
			c12.47-57.67,5.2-101.69-0.78-141.85c-8.57-57.58-21.04-268.5-21.04-292.46c0-23.96,0-126.06,0-126.06L1899.95,764.71z"/>
		
			<linearGradient id="SVGID_00000070110534631730861610000005652051542596110247_" gradientUnits="userSpaceOnUse" x1="1372.8513" y1="1963.3436" x2="1810.6589" y2="776.2506">
			<stop  offset="0" style="stop-color:#EB957C"/>
			<stop  offset="1" style="stop-color:#883A3C"/>
		</linearGradient>
		<path style="fill:url(#SVGID_00000070110534631730861610000005652051542596110247_);" d="M1756.26,891
			c-10.41,86.4-12.63,200.82-12.17,256.11c0.47,55.29-8.86,70.71-11.27,99c-2.41,28.29,15.26,65.57,0,140.14
			c-15.26,74.57,10.72,115.46,2.93,139.49c-7.79,24.03-14.29,37.02-14.94,61.69c-0.65,24.68,0.65,43.56-16.24,43.56
			c-16.88,0-34.42,0-43.51,0c-9.09,0-40.26-11.71-33.77-39.65c6.49-27.94,56.03-71.3,60.57-102.48s-52.15-120.63-47.6-183.62
			c4.55-62.99,19-76.11,14.45-132.61c-4.55-56.5-50.91-237.91-55.73-290.16s10.96-155.8,10.96-155.8l146.3,38.26V891z"/>
	</g>
	<g>
		
			<linearGradient id="SVGID_00000096033647320035021500000000879650574042256786_" gradientUnits="userSpaceOnUse" x1="1912.3721" y1="507.6455" x2="1915.1794" y2="715.3936">
			<stop  offset="0" style="stop-color:#2C5060"/>
			<stop  offset="0.1794" style="stop-color:#2B4D5C"/>
			<stop  offset="0.3475" style="stop-color:#274451"/>
			<stop  offset="0.5109" style="stop-color:#21353E"/>
			<stop  offset="0.6716" style="stop-color:#182123"/>
			<stop  offset="0.8289" style="stop-color:#0C0601"/>
			<stop  offset="0.8351" style="stop-color:#0C0500"/>
		</linearGradient>
		<path style="fill:url(#SVGID_00000096033647320035021500000000879650574042256786_);" d="M1947.33,652.65
			c1.82-13.48,2.65-29.4,2.35-47.92l-67.15,17.33l-4.17,32.87C1891.64,662.99,1917.06,672.26,1947.33,652.65z"/>
		
			<linearGradient id="SVGID_00000160190790563263848360000012081931495826660797_" gradientUnits="userSpaceOnUse" x1="1941.6787" y1="687.8123" x2="1887.8025" y2="661.1911">
			<stop  offset="0" style="stop-color:#F6E2DD"/>
			<stop  offset="1" style="stop-color:#EEC6BC"/>
		</linearGradient>
		<path style="fill:url(#SVGID_00000160190790563263848360000012081931495826660797_);" d="M1878.36,654.92l-3.95,31.15
			c0,0,14.08,20.46,38.45,20.46c17.7,0,29.65-18.09,34.47-53.89C1917.06,672.26,1891.64,662.99,1878.36,654.92z"/>
	</g>
	
		<linearGradient id="SVGID_00000147901248783755748990000015684306075285800875_" gradientUnits="userSpaceOnUse" x1="1688.0165" y1="221.9792" x2="1769.0706" y2="968.0941">
		<stop  offset="0" style="stop-color:#2C5060"/>
		<stop  offset="0.1794" style="stop-color:#2B4D5C"/>
		<stop  offset="0.3475" style="stop-color:#274451"/>
		<stop  offset="0.5109" style="stop-color:#21353E"/>
		<stop  offset="0.6716" style="stop-color:#182123"/>
		<stop  offset="0.8289" style="stop-color:#0C0601"/>
		<stop  offset="0.8351" style="stop-color:#0C0500"/>
	</linearGradient>
	<path style="fill:url(#SVGID_00000147901248783755748990000015684306075285800875_);" d="M1655.72,334.73
		c-31.95,12.47-40.53,27.28-46.76,42.87c-6.23,15.59-44.42,151.2-43.64,196.4c0.78,45.2,44.65,152.69,44.65,152.69
		s200.24,87.81,290.39,39.74c-8.8-39.59-17.83-68.54-17.83-78.21c0-19.05,10.13-67.46,10.13-67.46l-92.74-181.47L1655.72,334.73z"/>
	<g>
		<g>
			<g>
				<path class="st15" d="M1660.03,920.5c5.39,4.81,15.13,9.9,26.34,8.97c0,0-3.25,17.72-23.11,17.72
					C1650.76,947.18,1660.03,920.5,1660.03,920.5z"/>
				
					<linearGradient id="SVGID_00000022557596845488922190000010272267296511660990_" gradientUnits="userSpaceOnUse" x1="1711.6755" y1="834.3322" x2="1675.6887" y2="952.1072">
					<stop  offset="0.4538" style="stop-color:#CD8966"/>
					<stop  offset="1" style="stop-color:#F8B8B7"/>
				</linearGradient>
				<path style="fill:url(#SVGID_00000022557596845488922190000010272267296511660990_);" d="M1663.26,947.18
					c17.78,0,32.69-48.33,31.67-112.36l10.67,10c0,0,8.63,58.91-8.91,86.73c-6.94,11.01-16.68,15.62-28.78,15.62H1663.26z"/>
				
					<linearGradient id="SVGID_00000128480683000901899700000002815257882195906234_" gradientUnits="userSpaceOnUse" x1="1755.0406" y1="575.5984" x2="1668.9929" y2="950.6555">
					<stop  offset="0" style="stop-color:#CD8966"/>
					<stop  offset="1" style="stop-color:#CD8966"/>
				</linearGradient>
				<path style="fill:url(#SVGID_00000128480683000901899700000002815257882195906234_);" d="M1741.8,723.18
					c-6.18,51.94-36.2,121.65-36.2,121.65l-10.67-10c0,0,30.74-128.1,23.43-195.24C1718.37,639.58,1747.6,674.41,1741.8,723.18z"/>
				<polygon class="st15" points="1694.93,834.82 1671.74,860.62 1694.93,882.48 				"/>
				
					<linearGradient id="SVGID_00000145758260688153918310000016190070777087112857_" gradientUnits="userSpaceOnUse" x1="1688.0894" y1="853.7326" x2="1648.8307" y2="956.9683">
					<stop  offset="0.2499" style="stop-color:#CD8966"/>
					<stop  offset="1" style="stop-color:#F8B8B7"/>
				</linearGradient>
				<path style="fill:url(#SVGID_00000145758260688153918310000016190070777087112857_);" d="M1671.74,860.62
					c-29.45,42.39-23.65,86.57-8.48,86.57l0,0c-15.62,0,31.67-64.7,31.67-64.7L1671.74,860.62z"/>
				
					<linearGradient id="SVGID_00000051366559184521997630000012890863075750648481_" gradientUnits="userSpaceOnUse" x1="1634.3026" y1="553.2336" x2="1787.693" y2="735.6185">
					<stop  offset="0" style="stop-color:#CD8966"/>
					<stop  offset="1" style="stop-color:#F8B8B7"/>
				</linearGradient>
				<path style="fill:url(#SVGID_00000051366559184521997630000012890863075750648481_);" d="M1700.68,635.72
					c24.16,13.39,44.24,58.45,41.12,87.46c0,0,4.91-37.11,0.36-64.26c-4.35-25.97-19.42-48.19-41.48-61.84V635.72z"/>
			</g>
			
				<linearGradient id="SVGID_00000117669360994626134150000017745835331399155105_" gradientUnits="userSpaceOnUse" x1="1675.5024" y1="359.157" x2="1650.2491" y2="701.479">
				<stop  offset="0" style="stop-color:#CD8966"/>
				<stop  offset="1" style="stop-color:#F8B8B7"/>
			</linearGradient>
			<path style="fill:url(#SVGID_00000117669360994626134150000017745835331399155105_);" d="M1651.6,372.54v162.22l25.58,18.17
				c0,0,11.44-33.66,11.44-66.64s0-90.87,0-90.87L1651.6,372.54z"/>
		</g>
		<g>
			
				<linearGradient id="SVGID_00000080908731796385611850000003636914429484107197_" gradientUnits="userSpaceOnUse" x1="1756.8879" y1="665.1162" x2="1544.1636" y2="665.1162">
				<stop  offset="0" style="stop-color:#CD8966"/>
				<stop  offset="0.2775" style="stop-color:#D79478"/>
				<stop  offset="0.8333" style="stop-color:#F0AFA8"/>
				<stop  offset="1" style="stop-color:#F8B8B7"/>
			</linearGradient>
			<path style="fill:url(#SVGID_00000080908731796385611850000003636914429484107197_);" d="M1618.32,796.26
				c0,0,39.4,12.12,84.67-14.77c0.73-6.26,1.44-12.69,2.11-19.3c7.38-72.85,3.7-188.1-25.41-217.56
				c-23.68-23.96-78.62-13.88-117.54,15.39C1606.35,541.85,1651.57,604.67,1618.32,796.26z"/>
			
				<linearGradient id="SVGID_00000097482488152788038420000000173204352522613149_" gradientUnits="userSpaceOnUse" x1="1905.1909" y1="726.6827" x2="1539.3826" y2="726.6827">
				<stop  offset="0" style="stop-color:#CD8966"/>
				<stop  offset="0.6523" style="stop-color:#EBAA9E"/>
				<stop  offset="1" style="stop-color:#F8B8B7"/>
			</linearGradient>
			<path style="fill:url(#SVGID_00000097482488152788038420000000173204352522613149_);" d="M1618.32,796.26
				c33.25-191.59-11.97-254.41-56.16-236.24c-3.15,2.37-6.24,4.83-9.16,7.45c-36.63,32.85-48.83,76.63-48.83,141.42v75.26
				c0,9.96,3.43,19.58,9.7,27.31c13.26,16.33,39.05,46.32,70.81,74.24c8.88,7.81,20.61,11.51,32.39,10.48
				c14.71-1.28,35.43-4.99,53.7-15.22c8.57-4.8,14.85-12.81,18.04-22.1c5.32-15.47,10.19-43.5,14.16-77.36
				C1657.71,808.38,1618.32,796.26,1618.32,796.26z"/>
			
				<linearGradient id="SVGID_00000007404496740033933360000018158819310109016500_" gradientUnits="userSpaceOnUse" x1="1686.9171" y1="700.215" x2="1254.7015" y2="700.215">
				<stop  offset="0" style="stop-color:#CD8966"/>
				<stop  offset="1" style="stop-color:#F8B8B7"/>
			</linearGradient>
			<path style="fill:url(#SVGID_00000007404496740033933360000018158819310109016500_);" d="M1589.61,754.81
				c2.01,2.59,17.53-1.23,23.88-4.77c-0.05-13.39-80.33-95.37-103.62-105.28c0,0-14.47,5.89-19.15,9.4
				C1490.71,654.17,1529.86,678.04,1589.61,754.81z"/>
			
				<linearGradient id="SVGID_00000073685718233407860890000002875672018498860697_" gradientUnits="userSpaceOnUse" x1="1619.121" y1="768.8002" x2="1291.077" y2="768.8002">
				<stop  offset="0" style="stop-color:#CD8966"/>
				<stop  offset="1" style="stop-color:#F8B8B7"/>
			</linearGradient>
			<path style="fill:url(#SVGID_00000073685718233407860890000002875672018498860697_);" d="M1589.61,754.81
				c0,0.01-2.03,13.99-5.11,31.98c1.88,2.41,18.14-1.4,25.46-4.79c2.15-14.27,3.55-26.35,3.53-31.96
				C1607.14,753.58,1591.63,757.4,1589.61,754.81z"/>
			
				<linearGradient id="SVGID_00000011024119870500207680000008867504826615146658_" gradientUnits="userSpaceOnUse" x1="1754.6366" y1="720.4829" x2="1351.257" y2="720.4829">
				<stop  offset="0" style="stop-color:#CD8966"/>
				<stop  offset="1" style="stop-color:#F8B8B7"/>
			</linearGradient>
			<path style="fill:url(#SVGID_00000011024119870500207680000008867504826615146658_);" d="M1584.5,786.79L1584.5,786.79
				c3.07-18,5.11-31.97,5.11-31.98c-59.75-76.77-98.9-100.64-98.9-100.64c-2.64,1.98-4.08,15.06-4.7,31.9
				C1491.57,689.73,1529.4,715.99,1584.5,786.79z"/>
			
				<linearGradient id="SVGID_00000165936101382753873480000000501217688265874564_" gradientUnits="userSpaceOnUse" x1="1767.3992" y1="825.162" x2="1427.7915" y2="825.162">
				<stop  offset="0" style="stop-color:#CD8966"/>
				<stop  offset="1" style="stop-color:#F8B8B7"/>
			</linearGradient>
			<path style="fill:url(#SVGID_00000165936101382753873480000000501217688265874564_);" d="M1584.5,786.79
				c-5.92,34.67-15.71,84.28-22.35,77.88c6.16,5.75,25.5,4.71,30.08-3.14c5.09-8.71,13.13-49.1,17.72-79.53
				C1602.64,785.4,1586.38,789.21,1584.5,786.79z"/>
			
				<linearGradient id="SVGID_00000021804309396005728520000016163680073279011724_" gradientUnits="userSpaceOnUse" x1="1842.708" y1="775.6523" x2="1476.1479" y2="775.6523">
				<stop  offset="0" style="stop-color:#CD8966"/>
				<stop  offset="1" style="stop-color:#F8B8B7"/>
			</linearGradient>
			<path style="fill:url(#SVGID_00000021804309396005728520000016163680073279011724_);" d="M1584.5,786.79L1584.5,786.79
				c-55.11-70.8-92.93-97.06-98.49-100.72c-1.21,32.78,0.71,79.84,2.99,87.19c9.53,30.75,52.49,72.12,73.15,91.41
				C1568.79,871.07,1578.58,821.46,1584.5,786.79z"/>
		</g>
	</g>
	<g>
		
			<linearGradient id="SVGID_00000119832002682157675790000007701217145014302872_" gradientUnits="userSpaceOnUse" x1="1717.2306" y1="143.3016" x2="1759.6976" y2="173.7258">
			<stop  offset="0" style="stop-color:#F6E2DD"/>
			<stop  offset="1" style="stop-color:#EEC6BC"/>
		</linearGradient>
		<path style="fill:url(#SVGID_00000119832002682157675790000007701217145014302872_);" d="M1756.3,111.77
			c-20.56,26.52-24.6,87.11-14.5,108.65c0,0,30.96-1.35,30.96-33.66S1756.3,111.77,1756.3,111.77z"/>
		
			<linearGradient id="SVGID_00000150074958799244625350000004475889054092321707_" gradientUnits="userSpaceOnUse" x1="1762.025" y1="83.5954" x2="1859.594" y2="643.7141">
			<stop  offset="0" style="stop-color:#CD8966"/>
			<stop  offset="1" style="stop-color:#A5643A"/>
		</linearGradient>
		<path style="fill:url(#SVGID_00000150074958799244625350000004475889054092321707_);" d="M1765.36,98.58
			c0,0-11.44,3.37-11.44,32.98c0,29.62,0,28.94,0,45.77s-16.83,31.64-30.29,41.73s-18.17,23.56-16.83,37.02
			c1.35,13.46-5.38,21.54-14.81,26.92c-9.42,5.38-16.83,14.81-16.83,28.27c0,13.46-20.19,11.71-32.31,29.41
			c-12.12,17.7,0.66,60.63,50.48,71.55c49.14,10.77,80.77,22.21,80.77,46.45c0,19.57-17.5,45.25-10.1,79.17
			c7.4,33.92,53.85,33.24,61.93,54.11c8.08,20.87,16.83,51.83,74.04,47.12c57.22-4.71,76.74-58.56,64.62-90.87
			c-12.12-32.31-0.67-35.54,17.5-52.77s25.58-42.14,0-73.77c-25.58-31.64-24.23-45.1-19.52-67.99
			c4.71-22.89-12.79-44.43-30.96-61.25c-18.17-16.83-15.48-31.64-15.48-63.95c0-32.31,0-21.54,0-48.46s-8.08-74.04-52.5-99.62
			C1819.21,54.83,1764.68,52.14,1765.36,98.58z"/>
	</g>
</g>
</svg>
