<?xml version="1.0" encoding="utf-8"?>
<!-- Generator: Adobe Illustrator 28.0.0, SVG Export Plug-In . SVG Version: 6.00 Build 0)  -->
<svg version="1.1" xmlns="http://www.w3.org/2000/svg" xmlns:xlink="http://www.w3.org/1999/xlink" x="0px" y="0px"
	 viewBox="0 0 586.87 417.25" style="enable-background:new 0 0 586.87 417.25;" xml:space="preserve">
<style type="text/css">
	.st0{opacity:0.5;}
	.st1{fill:#CCCCCC;}
	.st2{fill:#2B2F36;}
	.st3{fill:#747D86;}
	.st4{fill:#DE7E49;}
	.st5{fill:#A3562C;}
	.st6{fill:#745423;}
	.st7{fill:#97722F;}
	.st8{fill:#F1F1F1;}
	.st9{fill:#464C54;}
	.st10{fill:#B49346;}
	.st11{fill:#D0BC70;}
	.st12{fill:#9E5536;}
	.st13{fill:#5D341E;}
	.st14{fill:#FFFFFF;}
</style>
<g id="BACKGROUND">
</g>
<g id="OBJECTS">
	<g>
		<g class="st0">
			<path class="st1" d="M355.97,50.41c-38.41-13.12-80.4-10.77-117.37,5.97c-39.38,17.83-97.48,51.15-108.63,96.22
				c-17.17,69.42,51.79,107.03,93.49,86.99c41.69-20.03,48.61-61.16,88.73-42.39c40.12,18.78,81.97,54.28,120.94,21.85
				C479.68,180.32,465.06,87.66,355.97,50.41z"/>
		</g>
		<g>
			<path class="st1" d="M195.8,65.31c-1.87-0.87-3.05-2.38-3.38-4.4c-0.56-3.42,0.99-6.31,2.38-8.13
				c4.05-5.31,11.76-6.44,17.18-2.52l0,0c2.57,1.85,3.58,4.31,2.92,7.11c-1.24,5.3-9.04,9.02-15.18,8.8
				C198.21,66.11,196.89,65.82,195.8,65.31z M209.56,50.03c-4.75-2.23-10.65-0.92-13.92,3.38c-1.27,1.66-2.68,4.28-2.18,7.33
				c0.59,3.64,4.21,4.31,6.31,4.38c5.62,0.19,13.02-3.26,14.13-8c0.56-2.39-0.29-4.41-2.51-6.02l0,0
				C210.79,50.68,210.19,50.33,209.56,50.03z"/>
		</g>
		<g class="st0">
			<path class="st1" d="M163.27,56.12c-5.55-1.44-10.05,2.78-10.05,2.78s-2.65-7.75-7.83-7.91c-6.87-0.22-9.53,6.21-9.53,6.21
				s-1.92-10.92-11.22-9.01c-6.8,1.39-10.52,10.72-10.52,10.72s-7.85-4.71-13.18,0c-5.33,4.71-6.87,9.18-6.87,9.18h79.7
				C173.78,68.08,172.82,58.6,163.27,56.12z"/>
		</g>
		<g class="st0">
			<path class="st1" d="M570.85,104.37c-5.01-1.3-9.06,2.51-9.06,2.51s-2.39-6.99-7.06-7.14c-6.19-0.2-8.6,5.6-8.6,5.6
				s-1.73-9.84-10.11-8.13c-6.13,1.25-9.48,9.66-9.48,9.66s-7.08-4.24-11.88,0c-4.8,4.24-6.19,8.28-6.19,8.28h71.87
				C580.33,115.16,579.47,106.61,570.85,104.37z"/>
		</g>
		<g>
			<path class="st1" d="M377.33,233.83c1.43,0.26,2.81,0.67,4.04,1.23c3.75,1.7,5.49,4.48,4.75,7.64c-0.79,3.37-3.31,5.46-5.3,6.61
				c-5.77,3.36-13.32,1.48-16.85-4.21l0,0c-1.67-2.69-1.67-5.35,0.01-7.68C366.45,233.96,372.24,232.92,377.33,233.83z
				 M372.58,249.75c2.58,0.46,5.32,0.05,7.72-1.35c1.81-1.05,4.1-2.94,4.81-5.95c0.84-3.59-2.25-5.58-4.16-6.45
				c-5.12-2.32-13.28-1.94-16.11,2.02c-1.43,1.99-1.41,4.19,0.03,6.53l0,0C366.62,247.39,369.48,249.19,372.58,249.75z"/>
		</g>
		<g>
			<path class="st1" d="M422.48,71.15c-3.68,1.79-8.43,1.32-12.27-1.24c-3.69-2.46-5.62-6.33-5.18-10.35
				c0.63-5.77,6.65-6.55,7.84-6.65c6.65-0.54,12.65,4.43,13.38,11.08l-0.52,0.06l0.52-0.06c0.34,3.15-0.81,5.54-3.32,6.93
				C422.78,71,422.63,71.07,422.48,71.15z M409.54,54.88c-1.6,0.78-3.19,2.2-3.48,4.8c-0.4,3.62,1.37,7.12,4.72,9.36
				c3.67,2.45,8.23,2.83,11.63,0.96c2.15-1.18,3.09-3.17,2.79-5.9l0,0c-0.66-6.09-6.16-10.64-12.25-10.15
				C412.46,54,411,54.17,409.54,54.88z"/>
		</g>
	</g>
	<g>
		<g>
			<path class="st2" d="M135.32,73.76c0,0,6.9,3.21,11.13,13.21c4.23,10,15.44,34.55,21.46,34.15c6.02-0.4,19.77-7.9,19.77-7.9
				c7.02-0.9,12.93,45.41,5.91,46.31c0,0-3.75,4.52-22.49-2.73c-18.75-7.25-25.45-9.91-29.55-31.49
				C137.44,103.71,135.32,73.76,135.32,73.76z"/>
		</g>
		<g>
			<g>
				<path class="st3" d="M166.35,121.08c-3.02,2.84-4.77,6.73-4.91,10.87c-0.01,0.36,0.55,0.36,0.56,0c0.13-4,1.83-7.73,4.75-10.47
					C167.01,121.23,166.61,120.84,166.35,121.08L166.35,121.08z"/>
			</g>
		</g>
		<g>
			<g>
				<polygon class="st4" points="111.49,379.65 105.6,395.62 95.92,395.61 95.92,378.01 				"/>
			</g>
			<g>
				<g>
					<g>
						<path class="st2" d="M113.94,409.16H91.96c0,0-0.48-0.92,0.07-3.38c0.08-0.38,0.19-0.8,0.33-1.26
							c0.01-0.02,0.01-0.05,0.02-0.07c0.21-0.68,0.44-1.52,0.69-2.42c1.01-3.68,2.19-8.49,2.19-8.49s3.66-7.83,7.94-5.87
							c3.75,1.71,2.86,6.62,2.86,6.62s0.37,2.88,3.21,5.42c1.76,1.57,3.51,2.78,4.35,4.74c0.16,0.37,0.28,0.75,0.37,1.17
							c0.01,0.05,0.02,0.1,0.03,0.16C114.21,406.72,114.2,407.82,113.94,409.16z"/>
					</g>
				</g>
			</g>
			<g>
				<g>
					<path class="st3" d="M113.94,409.16H91.96c0,0-0.48-0.92,0.07-3.38h22C114.21,406.72,114.2,407.82,113.94,409.16z"/>
				</g>
			</g>
		</g>
		<g>
			<g>
				<path class="st4" d="M212.98,100.57c0,0-18.59,10.3-29.21,17.06c-5.26,3.33-5.15,22.01,0.08,22.01
					c16.76-9.36,33.41-32.67,33.41-32.67C218.75,105.59,214.47,99.2,212.98,100.57z"/>
			</g>
		</g>
		<g>
			<g>
				<g>
					<g>
						<path class="st4" d="M210.97,102.56c0,0-0.05-4.09,2.2-6.84c2.25-2.74,3.45-5.48,5.24-7.41c1.79-1.93,1.34,1.51,0.76,3.35
							c-0.58,1.83-1.22,3.91,0.08,3.97c1.3,0.06,12.04-5.61,13.81-5.31c1.77,0.3,0.23,1.77,0.23,1.77s2.41-1.25,3.26-0.39
							c0.84,0.86-0.52,2.11-0.52,2.11s1.64-0.78,1.86,0.46c0.22,1.24-8.49,7.27-8.12,7.89c0.38,0.62,4.2-4.24,5.44-3.41
							c1.24,0.83-1.81,3.11-4.04,5.2c-2.22,2.09-5.1,3.62-7.92,3.86c-2.82,0.23-7.65,2.21-9.52-0.35
							C211.85,104.89,210.97,102.56,210.97,102.56z"/>
					</g>
				</g>
			</g>
			<g>
				<g>
					<g>
						<g>
							<g>
								<g>
									<path class="st5" d="M236.01,93.47c-2.86,1.51-5.67,3.11-8.42,4.8c-0.33,0.2,0.04,0.67,0.36,0.47
										c2.71-1.66,5.48-3.24,8.29-4.72C236.58,93.84,236.35,93.29,236.01,93.47L236.01,93.47z"/>
								</g>
							</g>
						</g>
					</g>
				</g>
			</g>
			<g>
				<g>
					<g>
						<g>
							<g>
								<g>
									<path class="st5" d="M233.11,92.05c-2.27,0.94-4.4,2.13-6.4,3.55c-0.31,0.22,0.05,0.69,0.36,0.47
										c1.96-1.39,4.05-2.55,6.27-3.48C233.7,92.45,233.47,91.9,233.11,92.05L233.11,92.05z"/>
								</g>
							</g>
						</g>
					</g>
				</g>
			</g>
			<g>
				<g>
					<g>
						<g>
							<g>
								<g>
									<path class="st5" d="M228.8,100.84c-0.56-2.42-1.64-4.61-3.23-6.51c-0.24-0.29-0.72,0.07-0.47,0.36
										c1.52,1.82,2.58,3.92,3.11,6.24C228.3,101.29,228.88,101.21,228.8,100.84L228.8,100.84z"/>
								</g>
							</g>
						</g>
					</g>
				</g>
			</g>
			<g>
				<g>
					<g>
						<g>
							<g>
								<g>
									<path class="st5" d="M224.21,98.19c-3.68-0.12-6.89,1.93-8.34,5.33c-0.15,0.35,0.4,0.58,0.55,0.22
										c1.33-3.14,4.31-5.07,7.72-4.96C224.52,98.79,224.6,98.2,224.21,98.19L224.21,98.19z"/>
								</g>
							</g>
						</g>
					</g>
				</g>
			</g>
		</g>
		<g>
			<path class="st2" d="M150.43,147.82c0,0,16.07,13.22,42.45,18c26.38,4.79,13.53,26.61,26.7,64.03
				c5.49,15.59,24.35,36.02,24.35,36.02s-21.13,19.55-53.01,12.48c-31.88-7.06-31.43-12.68-51.89-13.11
				c-20.46-0.43-28.29-66.91-28.29-66.91L150.43,147.82z"/>
		</g>
		<g>
			<path class="st6" d="M243.93,265.88c0,0-12.89,0.86-35.55-23.97c-23.6-25.86-10.79-56.68-42.4-52.16
				c-22.08,3.16-30.12,45.85-44.05,50.26c-13.93,4.41,11.66,27.66,33.99,36.33C204.56,295.22,244.05,267.57,243.93,265.88
				L243.93,265.88z"/>
		</g>
		<g>
			<path class="st6" d="M71.41,285.53c0,0,1.18,10.27,18.26,2.37c17.08-7.9,20.68-25.26,49.19-23.53c0,0,2.18-29.14-20.92-26.98
				S74.95,272.36,71.41,285.53z"/>
		</g>
		<g>
			<path class="st7" d="M117.39,170.81c0,0,26.94,108.33,25.89,123.29c-1.05,14.96-29.76,88-29.76,88l-22.31-2.83
				c3.52-49.85,9.27-85.09,12.02-92.09c0,0-30.66-85.09-29.59-103.07C74.71,166.13,117.39,170.81,117.39,170.81z"/>
		</g>
		<g>
			<g>
				<path class="st6" d="M140.24,294.74c-3.52,1.5-7.4,1.61-11.02,0.37c-0.46-0.16-0.65,0.57-0.2,0.72
					c3.82,1.31,7.89,1.13,11.59-0.44C141.06,295.2,140.68,294.56,140.24,294.74L140.24,294.74z"/>
			</g>
		</g>
		<g>
			<path class="st6" d="M96.48,376.67c-0.18,0-0.41-0.1-0.52-0.38c-0.62-1.56,1.53-24.24,3.86-43.48c1.85-15.21,5.31-40.8,8.09-44.5
				l-13.66-41.72c-0.09-0.26,0.06-0.54,0.32-0.63c0.26-0.09,0.54,0.06,0.63,0.32l13.75,41.99c0.06,0.19,0.01,0.4-0.14,0.53
				c-1.85,1.66-4.83,18.07-7.97,43.91c-2.59,21.32-4.32,41.27-3.97,43.15c0.06,0.08,0.1,0.18,0.11,0.3
				c0.01,0.28-0.21,0.51-0.49,0.51C96.49,376.67,96.49,376.67,96.48,376.67z"/>
		</g>
		<g>
			<polygon class="st6" points="116.5,377.04 114.56,383.3 89.66,379.99 91.29,372.71 			"/>
		</g>
		<g>
			<g>
				<g>
					<polygon class="st4" points="181.61,294.37 175.58,307.9 163.77,305.31 166.07,291.18 					"/>
				</g>
				<g>
					<g>
						<g>
							<g>
								<g>
									<g>
										<path class="st2" d="M157.59,320.21l7.93,2.89c0,0,1.91-0.27,2.81,0.19c0.9,0.46,3.93,2.27,3.93,2.27l21.05,7.67
											c0.15-0.94,0.23-1.8,0.25-2.59c0.02-0.95-0.05-1.8-0.2-2.54c-0.53-2.6-2.03-4.01-3.92-4.84
											c-2.88-1.26-9.9-10.83-9.9-10.83s-2.94-2.4-1.81-6.05c0.42-1.37-0.96-3.73-1.86-4.21c-1.82-0.98-3.34-0.15-4.32,1.67
											l-1.14,2.12l-4.19-2.31c0,0-3.69-3.93-4.28-1.63c-0.33,1.31-1.62,7.21-2.77,11.84c-0.27,1.08-0.52,2.1-0.74,3l0,0
											C157.93,318.85,157.59,320.21,157.59,320.21z"/>
									</g>
								</g>
							</g>
						</g>
					</g>
				</g>
				<g>
					<g>
						<path class="st3" d="M157.59,320.21l7.93,2.89c0,0,1.91-0.27,2.81,0.19c0.9,0.46,3.93,2.27,3.93,2.27l21.05,7.67
							c0.15-0.94,0.23-1.8,0.25-2.59l-35.14-13.79C157.93,318.85,157.59,320.21,157.59,320.21z"/>
					</g>
				</g>
			</g>
			<g>
				<path class="st7" d="M144.52,167.12c0,0,60.64-5.99,67.88,7.81c9.42,17.97-27.7,121.61-27.7,121.61l-24.26-7.76
					c0,0,11.75-73.77,12.62-83.43c0,0-44.63,10.83-60.66,6.31c-16.03-4.52-5.97-33.95-5.97-33.95L144.52,167.12z"/>
			</g>
			<g>
				<g>
					<path class="st6" d="M210.7,173.94c-1.77,2.29-4.1,3.97-6.84,4.9c-0.45,0.15-0.26,0.88,0.2,0.72c2.86-0.97,5.32-2.7,7.17-5.09
						C211.52,174.09,211,173.56,210.7,173.94L210.7,173.94z"/>
				</g>
			</g>
			<g>
				<polygon class="st6" points="187.94,292.23 185.07,299.12 158.38,291.6 159.7,283.25 				"/>
			</g>
			<g>
				<g>
					<path class="st6" d="M166.33,284.11c3.55-22.02,7.37-43.99,10.39-66.1c0.89-6.5,1.71-13.02,2.41-19.55
						c0.02-0.23-0.26-0.44-0.47-0.36c-12.9,5.06-26.83,7.16-40.65,6.13c-0.48-0.04-0.48,0.71,0,0.75
						c13.88,1.03,27.89-1.08,40.85-6.16c-0.16-0.12-0.32-0.24-0.47-0.36c-2.51,23.35-6.36,46.55-10.19,69.71
						c-0.87,5.24-1.74,10.48-2.58,15.73C165.53,284.39,166.26,284.59,166.33,284.11L166.33,284.11z"/>
				</g>
			</g>
		</g>
		<g>
			<path class="st2" d="M169.58,165.84c0,0-23.11,5.38-21.09,28.6c3.34,38.2-25.79,47.47-25.79,47.47l-9.18-22.21l5.83-46.62
				C119.35,173.07,154.03,156.12,169.58,165.84z"/>
		</g>
		<g>
			<path class="st2" d="M75.4,154.68l-1.76,29.43c1.11,10.84,67.08-9.1,94.27-18.81c-11.66-7.77-18.14-14.58-20.21-26.74
				c-4.33-26.88-6.59-62.64-12.38-64.8c-6.19-2.31-10.17-3.32-13.4-4.05c-3.97-0.9-6.8-1.4-11.17-3.42
				c-0.7-0.32-1.41-0.68-2.13-1.06c-1.8-0.96-15.13,0.76-15.13,0.76s-0.63,0.49-1.72,1.33c-2.1,1.62-5.91,4.55-10.21,7.84
				c-6.19,4.74-13.39,10.21-17.94,13.56C57.76,93.04,69.01,128.37,75.4,154.68z"/>
		</g>
		<g>
			<g>
				<path class="st3" d="M108.2,94c1.73,10.71,3.47,21.42,5.53,32.07c2.01,10.4,4.21,20.85,7.31,30.98
					c1.34,4.38,3.01,8.74,5.61,12.55c1.17,1.72,2.48,3.7,4.61,4.25c1.58,0.41,3.28,0.12,4.84-0.25c2.39-0.56,4.72-1.4,7.05-2.17
					c8.61-2.84,17.34-4.83,26.42-5.31c0.36-0.02,0.36-0.58,0-0.56c-7.94,0.43-15.72,1.92-23.31,4.28c-2.63,0.82-5.22,1.74-7.85,2.54
					c-1.81,0.55-3.71,1.13-5.62,1.1c-1.84-0.03-3.06-0.85-4.21-2.24c-3.02-3.66-4.95-8.07-6.43-12.54
					c-3.19-9.65-5.29-19.73-7.28-29.68c-2.33-11.67-4.24-23.42-6.14-35.17C108.69,93.5,108.14,93.65,108.2,94L108.2,94z"/>
			</g>
		</g>
		<g>
			<g>
				<path class="st3" d="M141,92.64c2.06,13.78,4.12,27.56,6.18,41.34c0.52,3.5,1.05,7,1.57,10.49c0.05,0.36,0.6,0.21,0.54-0.15
					c-2.06-13.78-4.12-27.56-6.18-41.34c-0.52-3.5-1.05-7-1.57-10.49C141.49,92.13,140.95,92.28,141,92.64L141,92.64z"/>
			</g>
		</g>
		<g>
			<path class="st8" d="M81.56,75.16c8.34,9.62,26.9,18.23,26.9,18.23c3.44-4.15,11.34-18.31,13.46-23.68
				c-1.19-0.27-2.28-0.51-3.34-0.76c-2.47-0.58-4.77-1.25-7.83-2.66c-0.7-0.32-1.41-0.68-2.13-1.06c-1.8-0.96-15.13,0.76-15.13,0.76
				s-0.63,0.49-1.72,1.33c-1.7,1.31-4.53,3.49-7.82,6.01C83.17,73.93,82.37,74.54,81.56,75.16z"/>
		</g>
		<g>
			<g>
				<path class="st1" d="M115.84,68.4c-1.2,2.94-2.68,5.75-4.43,8.4c-0.1,0.16-0.28,0.19-0.44,0.12c-1.15-0.55-2.3-1.09-3.46-1.64
					c-0.38-0.18-0.05-0.74,0.33-0.56c1.15,0.55,2.3,1.09,3.46,1.64c-0.15,0.04-0.3,0.08-0.44,0.12c1.72-2.6,3.19-5.36,4.37-8.25
					C115.37,67.84,116,68.01,115.84,68.4L115.84,68.4z"/>
			</g>
		</g>
		<g>
			<g>
				<path class="st1" d="M87.04,71.02c4.03,2.76,7.95,5.8,12.21,8.2c-0.15,0.04-0.3,0.08-0.44,0.12c0.81-1.06,1.67-2.08,2.45-3.17
					c0.24-0.34,0.8-0.01,0.56,0.33c-0.78,1.08-1.64,2.11-2.45,3.17c-0.11,0.14-0.27,0.21-0.44,0.12c-4.26-2.4-8.18-5.44-12.21-8.2
					C86.37,71.35,86.69,70.79,87.04,71.02L87.04,71.02z"/>
			</g>
		</g>
		<g>
			<g>
				<polygon class="st2" points="108.59,75.17 104.23,71.5 100.64,76.94 106.31,81.33 				"/>
			</g>
			<g>
				<polygon class="st2" points="107.04,77.18 110.07,83.64 107.45,88.17 102.43,85.63 104.02,77.99 				"/>
			</g>
		</g>
		<g>
			<path class="st7" d="M81.56,75.16c8.34,9.62,26.9,18.23,26.9,18.23c3.44-4.15,11.34-18.31,13.46-23.68
				c-1.19-0.27-2.28-0.51-3.34-0.76l-11.13,19.22c0,0-17.48-8.35-23.5-14.84C83.17,73.93,82.37,74.54,81.56,75.16z"/>
		</g>
		<g>
			<g>
				<g>
					<g>
						<path class="st7" d="M76.42,34.96c0.05,5.32,2.57,10.14,3.29,15.35c0.55,3.98-0.14,8.33-3.31,11.09
							c-0.36,0.32-0.89-0.21-0.53-0.53c3.64-3.17,3.68-8.26,2.7-12.62c-1.01-4.44-2.86-8.68-2.9-13.3
							C75.66,34.48,76.41,34.48,76.42,34.96L76.42,34.96z"/>
					</g>
				</g>
				<g>
					<path class="st7" d="M74.78,60.88c0,0.83,0.67,1.5,1.5,1.5c0.83,0,1.5-0.67,1.5-1.5c0-0.83-0.67-1.5-1.5-1.5
						C75.45,59.38,74.78,60.05,74.78,60.88z"/>
				</g>
				<g>
					<path class="st7" d="M76.42,60.64c0,0,0.83,4.63-0.61,6.71l-4.95-2.7C70.86,64.65,71.95,62.25,76.42,60.64z"/>
				</g>
			</g>
			<g>
				<g>
					<g>
						<path class="st5" d="M107.92,44.15c-0.01-0.17,2.82-4.64,5.54-2.22c2.72,2.42,1.01,8.36-4.89,7.34L107.92,44.15z"/>
					</g>
				</g>
				<g>
					<path class="st4" d="M93.96,68.95c0,0,4.41,3.77,9.91,3.02s6.67-3.53,6.67-3.53c-1.25-2.63-1.34-2.86-2.03-5.46
						c-0.68-2.58-1.06-4.51-1.06-4.51l-10.72-2.64l-2.71-0.67C95.14,61.48,95.23,64,93.96,68.95z"/>
				</g>
				<g>
					<path class="st2" d="M94.69,55.76c0,0,2.97,6.58,12.7,7.21c0.4,0.03,0.77,0.03,1.11,0.02c-0.68-2.58-1.06-4.51-1.06-4.51
						l-10.72-2.64L94.69,55.76z"/>
				</g>
				<g>
					<path class="st4" d="M87.47,39.68l0.22,1.6c0,0,1.4,7.61,4.17,12.2c3.05,5.05,12.75,9.74,17.81,4.33
						c3.82-4.08,3.06-19.26,3.06-19.26l-0.31-2.27c-0.77-5.63-6.23-8.65-11.87-9.37c-0.09-0.01,0.09,0.01,0,0
						C92.41,25.98,86.36,31.56,87.47,39.68z"/>
				</g>
				<g>
					<g>
						<path class="st2" d="M110.29,42.66c-0.69-1-1.85-1.41-3.02-1.12c-0.94,0.23-1.34-1.22-0.4-1.45c1.86-0.45,3.64,0.24,4.72,1.81
							C112.13,42.7,110.83,43.45,110.29,42.66L110.29,42.66z"/>
					</g>
				</g>
				<g>
					<g>
						<path class="st2" d="M99.89,43.85c0.47-1.12,1.53-1.75,2.74-1.71c0.96,0.03,1.07-1.46,0.1-1.5c-1.91-0.07-3.52,0.97-4.26,2.72
							C98.1,44.26,99.52,44.73,99.89,43.85L99.89,43.85z"/>
					</g>
				</g>
				<g>
					<g>
						<path class="st2" d="M103.17,46.22c-0.44-0.88-1.34-1.25-2.27-0.93c-0.34,0.12-0.49-0.43-0.15-0.54
							c1.15-0.39,2.36,0.1,2.9,1.19C103.81,46.26,103.33,46.54,103.17,46.22L103.17,46.22z"/>
					</g>
				</g>
				<g>
					<g>
						<path class="st2" d="M110.1,44.49c-0.81-0.15-1.53,0.45-1.57,1.27c-0.02,0.36-0.58,0.36-0.56,0c0.06-1.21,1.1-2.02,2.28-1.81
							C110.61,44.01,110.46,44.55,110.1,44.49L110.1,44.49z"/>
					</g>
				</g>
				<g>
					<g>
						<path class="st2" d="M104.77,42.48c-0.22,2.13,0.89,3.92,2.86,4.72c-0.04-0.16-0.08-0.31-0.12-0.47
							c-0.74,0.65-1.51,1.24-2.33,1.79c-0.3,0.2-0.02,0.69,0.28,0.49c0.86-0.57,1.67-1.19,2.45-1.88c0.18-0.15,0.06-0.4-0.12-0.47
							c-1.74-0.7-2.64-2.33-2.45-4.17C105.37,42.12,104.81,42.12,104.77,42.48L104.77,42.48z"/>
					</g>
				</g>
				<g>
					<path class="st8" d="M102.03,50.57c1.98,0.15,4.13-0.12,7.07-0.4c0,0-0.09,3-2.85,3.52C103.49,54.2,102.03,50.57,102.03,50.57z
						"/>
				</g>
				<g>
					<g>
						<path class="st4" d="M93.29,46.14c-0.04-0.17-3.96-3.72-5.93-0.66c-1.98,3.06,1.26,8.33,6.68,5.77L93.29,46.14z"/>
					</g>
					<g>
						<g>
							<path class="st2" d="M91.3,52.3c0.97,0.05,2.11-0.09,2.86-0.76c0.27-0.24-0.13-0.64-0.4-0.4c-0.63,0.57-1.65,0.64-2.46,0.6
								C90.94,51.72,90.94,52.28,91.3,52.3L91.3,52.3z"/>
						</g>
					</g>
					<g>
						<g>
							<path class="st2" d="M88.21,47.26c1.4,0.51,2.57,1.43,3.4,2.66c0.2,0.3,0.69,0.02,0.49-0.28c-0.92-1.36-2.19-2.36-3.73-2.92
								C88.02,46.59,87.88,47.13,88.21,47.26L88.21,47.26z"/>
						</g>
					</g>
				</g>
				<g>
					<g>
						<path class="st5" d="M104.39,55.22c1.14,0.69,2.75,0.84,3.71-0.22c0.21-0.24-0.14-0.59-0.35-0.35
							c-0.82,0.9-2.16,0.72-3.12,0.14C104.36,54.62,104.12,55.05,104.39,55.22L104.39,55.22z"/>
					</g>
				</g>
			</g>
			<g>
				<path class="st2" d="M88.42,44.49c0,0,3.69-0.99,4.89,1.88l1.54-0.61c0,0-2.49-4.93-1.57-7.08c0.92-2.15,8.73,1.98,8.32-1.01
					c0,0,12.08,1.99,10.68-2.26c-0.49-1.48,0.19-7.12-8-8.77C94.5,24.68,82.28,30.6,88.42,44.49z"/>
			</g>
			<g>
				<polygon class="st2" points="124.48,28.1 99.36,13.6 70.58,36.57 101.95,38.94 				"/>
			</g>
			<g>
				<path class="st9" d="M111.61,32.17c0,0,0.02-4.44-2.51-7.19c0,0-14.4-4.17-24.07,7.38c-0.72,2.87,0.49,5.59,2.31,8.28
					C87.34,40.64,98.11,25.37,111.61,32.17z"/>
			</g>
			<g>
				<path class="st2" d="M110.83,32.71l1.96,8.99c0,0,0.76-2.73,0.67-4.76C113.23,31.41,110.83,32.71,110.83,32.71z"/>
			</g>
		</g>
		<g>
			<path class="st2" d="M124.33,167.12c0,0,4,15.18,13.35,44.6c4.78,15.05-6.57,25.57-6.57,25.57s-55.85,29.03-59.71,48.24
				c0,0,1.15-53.46,2.21-88.24c1.05-34.45-0.91-52.35-4.82-68.16C64.88,113.32,124.33,167.12,124.33,167.12z"/>
		</g>
		<g>
			<g>
				<path class="st3" d="M74.39,132.49c6.24,16.14,8.48,33.44,9.05,50.65c0.29,8.75,0.28,17.54-0.27,26.28
					c-0.57,9.07-1.59,18.11-2.29,27.17c-0.78,10.14-1.14,20.34-0.01,30.46c0.04,0.36,0.6,0.36,0.56,0
					c-2.03-18.26,0.79-36.52,2.1-54.72c0.64-8.8,0.75-17.62,0.54-26.43c-0.2-8.53-0.77-17.05-1.99-25.5
					c-1.39-9.58-3.66-19.03-7.15-28.06C74.81,132.01,74.26,132.15,74.39,132.49L74.39,132.49z"/>
			</g>
		</g>
		<g>
			<g>
				<path class="st3" d="M80.91,120.97c-3.63,5.28-7.19,10.61-10.57,16.06c-0.19,0.31,0.29,0.59,0.49,0.28
					c3.38-5.45,6.94-10.78,10.57-16.06C81.6,120.95,81.11,120.67,80.91,120.97L80.91,120.97z"/>
			</g>
		</g>
		<g>
			<path class="st2" d="M63.62,88.72c0,0-26.91,34.62-30.16,55.67s2.57,37.55,2.57,37.55c4.6,8.39,37.18-9.46,32.58-17.85
				c0,0-4.75-16.06,2.8-31.1L63.62,88.72z"/>
		</g>
		<g>
			<g>
				<path class="st3" d="M67.81,143.32c-2.74-3.57-6.75-5.85-11.23-6.37c-0.36-0.04-0.36,0.52,0,0.56c4.26,0.5,8.13,2.7,10.74,6.1
					C67.54,143.88,68.03,143.6,67.81,143.32L67.81,143.32z"/>
			</g>
		</g>
		<g>
			<path class="st4" d="M44.6,177.44c8.88,18.21,24.6,32.51,24.6,32.51c1.12,1.48,7-3.4,5.87-4.87c0,0-7.13-22.28-12.18-36.97
				C61.05,164.47,42.75,173.8,44.6,177.44z"/>
		</g>
		<g>
			<g>
				<g>
					<g>
						<g>
							<path class="st10" d="M44.89,235.61c-2.74,2.84,11.66,16.73,14.4,13.89c0,0,13.72-18.25,25.68-32.43
								c11.87-14.08,29.51-24.67,29.75-24.81c0,0,0,0,0,0s0,0,0,0c-1.51-3.24-3.6-6.15-6.14-8.59c-2.53-2.44-5.52-4.42-8.82-5.82
								c0,0,0,0,0,0.01c-0.1,0.18-2.1,3.79-5.47,8.83c-4.25,6.34-10.67,14.94-18.23,21.81C62.34,220.95,44.89,235.61,44.89,235.61z"
								/>
						</g>
					</g>
					<g>
						<g>
							<path class="st7" d="M99.78,177.84C99.78,177.84,99.77,177.84,99.78,177.84c-0.06,0.19-0.84,3.16,5.07,8.85
								c6,5.78,9.77,5.57,9.88,5.56c0,0,0,0,0,0s0,0,0,0c-1.51-3.24-3.6-6.15-6.14-8.59C106.06,181.21,103.08,179.23,99.78,177.84z"
								/>
						</g>
					</g>
					<g>
						<g>
							<g>
								<path class="st6" d="M102.91,183.15c-0.94-1.15-0.93-1.53-0.8-1.75c0.08-0.13,0.21-0.2,0.37-0.21c0,0,0.01,0,0.01,0
									c1.15-0.06,4.81,3.16,7.4,6.51c0.08,0.1,0.06,0.25-0.04,0.33c-0.1,0.08-0.25,0.06-0.33-0.04c-3.02-3.92-6.34-6.38-6.97-6.34
									c-0.01,0-0.02,0-0.03,0c-0.02,0.83,5.16,5.93,7.83,7.45c0.8,0.46,0.99,0.35,0.99,0.35c0,0,0.02-0.03,0.02-0.1
									c-0.01-1.96-5.68-7.35-7.62-7.99c-0.12-0.04-0.19-0.17-0.15-0.3c0.04-0.12,0.17-0.19,0.3-0.15c0.97,0.32,2.9,1.81,4.7,3.62
									c0.97,0.98,3.23,3.4,3.24,4.82c0,0.37-0.21,0.5-0.34,0.54c-0.04,0.02-0.09,0.02-0.14,0.03
									C109.83,190.04,104.55,185.17,102.91,183.15z M102.52,181.63L102.52,181.63L102.52,181.63z"/>
							</g>
						</g>
					</g>
				</g>
				<g>
					<g>
						<path class="st11" d="M87.79,213.89c0,0-1.1,3.34-3.52,5.05c-2.64,1.85-11.5-6.64-10.1-9.33c1.37-2.65,4.91-4,4.91-4
							c-0.91,0.86-1.65,1.68-2.35,2.27c0,0,0.1,2.03,3.46,5.27c3.36,3.24,5.54,3.01,5.54,3.01L87.79,213.89z"/>
					</g>
				</g>
				<g>
					<g>
						<g>
							<path class="st11" d="M83.06,217.79l-0.8-1.11l1.35-0.19c0.1-0.01,2.54-0.36,5.12-0.4c3.9-0.06,5.94,0.59,6.41,2.05
								c0.25,0.79-0.07,1.52-0.85,1.91c-1.57,0.8-4.95,0.21-5.94,0.01c-1.18-0.24-3.9-0.88-5.04-1.98
								C83.22,217.98,83.13,217.89,83.06,217.79z M88.77,217.74c-0.82,0.01-1.62,0.06-2.34,0.11c1.24,0.41,2.86,0.77,4.44,0.91
								c1.64,0.14,2.42-0.05,2.68-0.17C93.39,218.37,92.61,217.68,88.77,217.74z"/>
						</g>
					</g>
				</g>
				<g>
					<g>
						<g>
							<path class="st11" d="M84.07,222.83c-0.38-1.25-1.2-4.32-0.52-5.74l0.59-1.23l0.81,1.1c0.06,0.08,1.52,2.06,2.78,4.31
								c1.91,3.41,2.3,5.51,1.24,6.62c-0.57,0.6-1.37,0.66-2.08,0.16c-0.12-0.08-0.23-0.17-0.34-0.28
								C85.28,226.54,84.34,223.72,84.07,222.83z M86.3,222.09c-0.4-0.71-0.82-1.4-1.21-2.01c0.23,1.28,0.68,2.89,1.31,4.34
								c0.65,1.51,1.19,2.11,1.42,2.28C87.94,226.46,88.18,225.45,86.3,222.09z"/>
						</g>
					</g>
				</g>
			</g>
			<g>
				<g>
					<path class="st4" d="M76.26,203.53c0,0,5.75,6.45,9.31,7.71c3.56,1.26,6.8,2.99,5.83,3.93c-0.97,0.94-2.66,0.92-2.66,0.92
						s-0.01,2.13-0.7,2.68c-0.69,0.55-2.71,0.44-2.71,0.44s0.82,2.77-0.22,3.19c-1.03,0.42-3.07,0.85-3.07,0.85s0.06,1.23-1.31,2.1
						c-1.37,0.87-6.87,5.35-12.94-11.53C66.46,210.17,76.26,203.53,76.26,203.53z"/>
				</g>
			</g>
			<g>
				<g>
					<path class="st4" d="M64.12,205.66l3.74,8.14l11.31-7.53l-6.01-6.09C71.88,198.58,62.85,204.06,64.12,205.66z"/>
				</g>
			</g>
			<g>
				<g>
					<path class="st4" d="M76.26,203.53c0,0,4.34-3.27,7.51-2.72l-5.21,5.54L76.26,203.53z"/>
				</g>
			</g>
		</g>
	</g>
	<g>
		<g>
			<g>
				<path class="st7" d="M344.01,40.67c-0.88,5.25-4.13,9.61-5.66,14.65c-1.16,3.84-1.17,8.25,1.53,11.47
					c0.31,0.37,0.92-0.07,0.61-0.44c-3.1-3.7-2.34-8.73-0.69-12.88c1.69-4.23,4.18-8.13,4.95-12.68
					C344.83,40.31,344.09,40.19,344.01,40.67L344.01,40.67z"/>
			</g>
		</g>
		<g>
			<path class="st7" d="M339.98,66.03c0,0-1.55,4.44-0.45,6.72l5.31-1.89C344.84,70.87,344.15,68.32,339.98,66.03z"/>
		</g>
		<g>
			<path class="st7" d="M338.37,66.98c0.24,0.79,1.08,1.24,1.88,0.99c0.79-0.24,1.24-1.08,0.99-1.88c-0.24-0.79-1.08-1.24-1.88-0.99
				C338.57,65.35,338.13,66.19,338.37,66.98z"/>
		</g>
		<g>
			<path class="st6" d="M237.68,247.43c0,0-0.78,10.76,13.97,10.51c14.75-0.25,32.74-10,60.49,1.75
				c27.75,11.75,39.25,8.7,38.92,4.25c-0.33-4.45-37.92-43.24-73.17-42.24C242.65,222.69,237.68,247.43,237.68,247.43z"/>
		</g>
		<g>
			<g>
				<g>
					<g>
						<g>
							<g>
								<g>
									<g>
										<path class="st12" d="M369.91,283.01l25.14-6.68c3.5,4.43,5.34,7.83,1.64,11.64l-21.26,9.92L369.91,283.01z"/>
									</g>
								</g>
							</g>
						</g>
					</g>
				</g>
				<g>
					<g>
						<g>
							<g>
								<g>
									<path class="st2" d="M397.03,274.86c-1.8-0.03-3.56,0.6-4.88,1.82c-0.45,0.42-0.75,0.81-0.64,1.08
										c0.34,0.82,4.44,5.54,5.12,6.82c0.68,1.29-5.01,5.05-5.02,5.75c-0.01,0.71,2.54,0.38,5.2,1.12
										c2.66,0.74,9.29,11.39,11.66,15.84c2.37,4.45,2.79-7.8,2.63-12.53c-0.16-4.73-0.3-10.76-0.3-10.76s-7.16-2.55-7.14-3.36
										c0.01-0.81,7.11-0.7,7.12-2.1c0.01-1.39,0.05-3.48,0.05-3.48L397.03,274.86z"/>
								</g>
							</g>
						</g>
					</g>
				</g>
				<g>
					<g>
						<g>
							<g>
								<g>
									<g>
										<path class="st12" d="M298.9,367.38l7.06,25.04c-4.38,3.57-7.75,5.46-11.61,1.81l-10.24-21.11L298.9,367.38z"/>
									</g>
								</g>
							</g>
						</g>
					</g>
				</g>
				<g>
					<g>
						<g>
							<g>
								<g>
									<path class="st2" d="M307.46,394.38c0-1.8-0.66-3.55-1.9-4.86c-0.42-0.45-0.83-0.74-1.09-0.63
										c-0.81,0.35-5.47,4.52-6.75,5.22c-1.28,0.7-5.12-4.93-5.83-4.93s-0.34,2.55-1.04,5.22c-0.7,2.67-11.25,9.46-15.66,11.9
										c-4.41,2.44,7.84,2.67,12.56,2.44c4.72-0.23,10.76-0.46,10.76-0.46s2.44-7.19,3.25-7.19c0.81,0,0.81,7.1,2.2,7.09
										c1.39-0.01,3.48,0,3.48,0V394.38z"/>
								</g>
							</g>
						</g>
					</g>
				</g>
				<g>
					<g>
						<g>
							<g>
								<g>
									<g>
										<path class="st7" d="M268.18,185.58c0,0-15.6,68.24-11.14,109.09c4.46,40.86,22.19,89.88,22.19,89.88l28.23-10.77
											c0,0-19.59-60.17-19.4-91s7.62-81.27,7.62-81.27L268.18,185.58z"/>
									</g>
								</g>
							</g>
						</g>
					</g>
				</g>
				<g>
					<path class="st7" d="M327.32,239.44c0,0,0.5,39.95,3,43.47c2.5,3.52,51.24-5.73,51.24-5.73l6.5,19.35
						c0,0-46.49,15.39-67.74,17.39c-21.25,2-25.29-75.74-25.29-75.74L327.32,239.44z"/>
				</g>
				<g>
					<path class="st6" d="M336.47,290.75c-0.21,0-0.42,0-0.62,0c-5.84-0.08-9.12-1.21-10.01-3.46c-3.49-8.81-3.53-33.48-3.53-34.52
						c0-0.28,0.22-0.5,0.5-0.5c0.28,0,0.5,0.22,0.5,0.5c0,0.25,0.04,25.52,3.46,34.15c0.81,2.04,4.47,2.83,9.55,2.83
						c12.07,0,32.21-4.41,41.56-6.85c0.27-0.07,0.54,0.09,0.61,0.36c0.07,0.27-0.09,0.54-0.36,0.61
						c-0.12,0.03-12.22,3.16-24.58,5.18C346.6,290.18,340.86,290.75,336.47,290.75z"/>
				</g>
				<g>
					<path class="st6" d="M382.38,298.39c-0.22,0-0.42-0.15-0.48-0.37l-5.29-19.29c-0.07-0.27,0.08-0.54,0.35-0.61
						c0.27-0.07,0.54,0.08,0.61,0.35l5.29,19.29c0.07,0.27-0.08,0.54-0.35,0.61C382.47,298.38,382.42,298.39,382.38,298.39z"/>
				</g>
				<g>
					<g>
						<g>
							<g>
								<path class="st6" d="M268.56,292.51c-3.66,1.41-7.11,1.63-10.93,0.75c-0.57-0.13-0.33-1,0.24-0.87
									c3.66,0.85,6.95,0.6,10.45-0.75C268.86,291.43,269.1,292.3,268.56,292.51L268.56,292.51z"/>
							</g>
						</g>
					</g>
				</g>
				<g>
					<g>
						<g>
							<g>
								<path class="st6" d="M288.77,215.29c-1.31,18.62-3.96,37.12-5.19,55.75c-0.48,7.33-0.92,14.83-0.04,22.15
									c1.47,12.13,3.87,24.16,6.69,36.05c3.15,13.28,6.88,26.41,10.76,39.49c0.17,0.56-0.71,0.8-0.87,0.24
									c-6.95-23.39-13.46-47.02-16.88-71.22c-0.54-3.82-0.97-7.6-1.05-11.45c-0.08-3.96,0.06-7.91,0.27-11.86
									c0.51-9.36,1.45-18.69,2.41-28c1.07-10.37,2.25-20.75,2.98-31.15C287.91,214.71,288.82,214.71,288.77,215.29L288.77,215.29z
									"/>
							</g>
						</g>
					</g>
				</g>
				<g>
					<g>
						<g>
							<g>
								<g>
									<g>
										<path class="st6" d="M277.47,377.61c0.05,0,0.09-0.01,0.14-0.02l28.06-9.56c0.23-0.08,0.35-0.32,0.27-0.55
											c-0.08-0.23-0.32-0.35-0.55-0.27l-28.06,9.56c-0.23,0.08-0.35,0.32-0.27,0.55C277.12,377.5,277.29,377.61,277.47,377.61z"
											/>
									</g>
								</g>
							</g>
						</g>
					</g>
				</g>
			</g>
		</g>
		<g>
			<path class="st2" d="M239.05,246.44c-9.68,13.34,32.52-93.98,37.52-115.23c5-21.25,6.1-39.44,8.5-52.04
				c2.13-11.2,8.8-11.69,16.82-14.14c0.82-0.25,1.65-0.52,2.5-0.82c0.19-0.07,0.38-0.14,0.57-0.21c9.35-3.53,13.29,0.94,13.29,0.94
				s3.14,1.74,7.88,4.06c0.93,0.45,1.92,0.93,2.97,1.42c2.43,1.14,5.14,2.36,7.98,3.54c10.24,4.25,1.99,16.5-4.76,32.49
				c-6.75,16-6.38,38.73-2.25,50.19c21.01,58.21,19.75,95.04,21,107.28C352.31,276.18,262.69,213.86,239.05,246.44z"/>
		</g>
		<g>
			<g>
				<path class="st3" d="M314.86,154.74c-1.39,10.54,4.36,21.41,13.84,26.21c0.32,0.16,0.61-0.32,0.28-0.49
					c-9.33-4.72-14.93-15.37-13.57-25.72C315.47,154.38,314.91,154.39,314.86,154.74L314.86,154.74z"/>
			</g>
		</g>
		<g>
			<g>
				<path class="st3" d="M305.2,98.26c-4.17,18.04-7.7,36.22-10.5,54.52c-2.8,18.34-4.88,36.8-5.99,55.32
					c-0.62,10.27-0.93,20.56-0.88,30.85c0,0.36,0.56,0.36,0.56,0c-0.09-18.27,0.96-36.53,2.83-54.7
					c1.91-18.61,4.68-37.14,8.14-55.52c1.91-10.15,4.04-20.26,6.37-30.33C305.83,98.06,305.28,97.91,305.2,98.26L305.2,98.26z"/>
			</g>
		</g>
		<g>
			<path class="st7" d="M329.1,70.43c-5.95,13.79-23.63,27.91-23.63,27.91c-3.67-12.19-3.72-27.49-3.58-33.31
				c0.82-0.25,1.65-0.52,2.5-0.82c0.19-0.07,0.38-0.14,0.57-0.21c9.35-3.53,13.29,0.94,13.29,0.94s3.14,1.74,7.88,4.06
				C327.06,69.46,328.05,69.94,329.1,70.43z"/>
		</g>
		<g>
			<path class="st8" d="M326.13,69c-0.74,1.48-2.1,3.43-3.77,5.58c-5.88,7.57-15.6,17.55-15.6,17.55c-1.3-5.9-1.89-13.61-2.15-19.57
				c-0.17-3.8-0.21-6.89-0.21-8.35c0.19-0.07,0.38-0.14,0.57-0.21c9.35-3.53,13.29,0.94,13.29,0.94S321.39,66.68,326.13,69z"/>
		</g>
		<g>
			<path class="st12" d="M326.13,69c-0.74,1.48-2.1,3.43-3.77,5.58c-4.07,2.97-9.2,5.71-12.71,4.04c-2.44-1.16-4.02-3.53-5.05-6.07
				c-0.17-3.8-0.21-6.89-0.21-8.35c0.19-0.07,0.38-0.14,0.57-0.21c9.35-3.53,13.29,0.94,13.29,0.94S321.39,66.68,326.13,69z"/>
		</g>
		<g>
			<g>
				<path class="st2" d="M330.08,70.89c0,0,23.15,6.2,30.66,1.65c7.52-4.56,5.58-16.27,10.05-15.74
					c4.47,0.53,11.82,16.56,12.62,28.93c0.8,12.38-1.3,7.87-11.93,12.29c-11.32,4.7-38.53,12.98-43.64,7.35
					C322.73,99.73,330.08,70.89,330.08,70.89z"/>
			</g>
			<g>
				<g>
					<path class="st3" d="M356.74,74.09c-2.6,3.98-3.43,8.83-2.34,13.46c0.08,0.35,0.63,0.2,0.54-0.15
						c-1.06-4.49-0.23-9.17,2.28-13.03C357.43,74.07,356.94,73.79,356.74,74.09L356.74,74.09z"/>
				</g>
			</g>
			<g>
				<g>
					<path class="st3" d="M331.72,106.84c-2.06,0.1-3.88-0.48-5.75-1.29c-0.33-0.14-0.62,0.34-0.28,0.49
						c1.96,0.84,3.89,1.47,6.04,1.36C332.08,107.39,332.08,106.82,331.72,106.84L331.72,106.84z"/>
				</g>
			</g>
			<g>
				<path class="st12" d="M376.77,85.29c-2.58,0.95-9.84-18.84-7.26-19.79c4.52-12.26,9.79-34.65,9.79-34.65
					c-0.08-1.55,6.92-1.43,7.72,0.01c0,0-1.84,43.01-9.32,53.31C377.43,84.56,377.11,84.93,376.77,85.29z"/>
			</g>
			<g>
				<g>
					<g>
						<g>
							<g>
								<g>
									<g>
										<g>
											<g>
												<path class="st12" d="M395.43,28.96c0.06,2.55-2.17,2.84-5.46,5.12c-2.16,1.5-5.14,5.24-7.62,3.64
													c-2.48-1.6-4.02-3.32-4.02-3.32s-2.07-2.48-1.03-5.6c0,0,1.27-4.64,2.48-5.25c1.21-0.61,2.77,0.84,2.77,0.84
													c1.15-0.39,6.87-9.88,8.5-10.21c0,0,1.86-0.29,1.01,2.09c-0.85,2.38-3.87,6.84-3.87,6.84s6.12-7.03,7.84-6.87
													c0.5,0.05,0.81,0.55,0.61,1.28c-0.29,1.05-1.46,2.03-2.17,2.86c-1.24,1.45-3,3.68-3.46,4.44c0,0,1.49-0.37,2.49,0.35
													c1,0.72,0.01,2.08,0.01,2.08S395.39,27.39,395.43,28.96z"/>
											</g>
										</g>
									</g>
								</g>
							</g>
						</g>
					</g>
					<g>
						<g>
							<g>
								<g>
									<g>
										<path class="st13" d="M383.2,30.12c0.18,0.06,0.36,0.1,0.51,0.12c0.49,0.08,0.9,0.01,1.2-0.21
											c0.25-0.19,0.41-0.47,0.46-0.83c0.05-0.39,0-0.8-0.15-1.24c-0.06-0.19-0.15-0.38-0.22-0.53c-0.68-1.39-2.01-2.55-2.07-2.6
											c-0.1-0.09-0.26-0.08-0.34,0.03c-0.09,0.1-0.08,0.26,0.03,0.35c0.01,0.01,1.32,1.15,1.95,2.45
											c0.06,0.13,0.14,0.3,0.19,0.47c0.13,0.37,0.17,0.71,0.13,1.02c-0.03,0.23-0.12,0.4-0.27,0.51
											c-0.18,0.14-0.47,0.18-0.83,0.12c-0.14-0.02-0.29-0.06-0.45-0.11c-1.32-0.43-2.88-1.73-3.98-3.31
											c-0.08-0.11-0.23-0.14-0.34-0.06c-0.11,0.08-0.14,0.23-0.06,0.34C380.14,28.31,381.76,29.65,383.2,30.12
											C383.2,30.12,383.2,30.12,383.2,30.12z"/>
									</g>
								</g>
							</g>
						</g>
					</g>
					<g>
						<g>
							<g>
								<g>
									<g>
										<path class="st13" d="M389.72,32.99c0.91,0.27,2.18-0.29,2.35-0.37c0.12-0.06,0.18-0.2,0.12-0.32
											c-0.06-0.12-0.2-0.18-0.32-0.12c-0.48,0.22-1.84,0.68-2.33,0.15c-0.7-0.75,1.01-2.7,1.67-3.33
											c0.09-0.09,0.1-0.23,0.02-0.33c-0.07-0.1-0.21-0.13-0.32-0.06c-0.62,0.38-2.38,1.21-3.07,0.55
											c-0.11-0.11-0.16-0.24-0.15-0.41c0.06-1.05,2.19-2.87,3-3.49c0.11-0.08,0.13-0.23,0.05-0.34
											c-0.08-0.11-0.23-0.13-0.34-0.05c-0.32,0.24-3.1,2.39-3.19,3.85c-0.02,0.31,0.08,0.58,0.3,0.79
											c0.62,0.6,1.68,0.38,2.5,0.07c-0.74,0.91-1.57,2.26-0.82,3.07C389.32,32.83,389.51,32.93,389.72,32.99z"/>
									</g>
								</g>
							</g>
						</g>
					</g>
					<g>
						<g>
							<g>
								<g>
									<g>
										<path class="st13" d="M388.67,24.57c0.05,0.02,0.11,0.01,0.17-0.01c0.12-0.05,0.18-0.2,0.13-0.32
											c-0.02-0.05-0.55-1.27-2.17-1.98c-0.12-0.06-0.27,0-0.32,0.13c-0.05,0.12,0,0.27,0.13,0.32c1.43,0.63,1.91,1.71,1.91,1.72
											C388.54,24.5,388.6,24.55,388.67,24.57z"/>
									</g>
								</g>
							</g>
						</g>
					</g>
				</g>
				<g>
					<g>
						<g>
							<g>
								<g>
									<g>
										<path class="st13" d="M387.42,25.04c-0.02,0.01-1.32,0.83-2.64,2.5c0.08,0.17,0.15,0.33,0.21,0.5
											c1.34-1.72,2.67-2.56,2.7-2.58c0.12-0.08,0.15-0.22,0.08-0.34C387.68,25.01,387.54,24.98,387.42,25.04z"/>
									</g>
								</g>
							</g>
						</g>
					</g>
					<g>
						<g>
							<g>
								<g>
									<g>
										<path class="st13" d="M381.92,34.86c-0.01,0.11,0.07,0.21,0.17,0.25l0.06,0.02c0.13,0,0.24-0.1,0.25-0.23
											c0.13-1.93,0.66-3.56,1.35-4.88c-0.15-0.02-0.31-0.06-0.48-0.11C382.59,31.25,382.06,32.9,381.92,34.86z"/>
									</g>
								</g>
							</g>
						</g>
					</g>
				</g>
			</g>
		</g>
		<g>
			<path class="st2" d="M299.38,54.44c10.69,3.59,28.96,14.62,33.73,12.63c2.25,0,2.99-3.46,1.98-5.01
				c-5.07-7.82-1.07-10.95,0.42-17.59c1.49-6.64-4.07-13.4-4.07-13.4l-9.47-1.75c-6.77-1.25-12.83-1.94-14.74,4.67
				c-0.05,0.15-0.49,3.27-0.77,5.18c-0.95,6.36-4.52,6.88-7.92,9.23C296.24,50,296.72,53.55,299.38,54.44z"/>
		</g>
		<g>
			<polygon class="st2" points="299.55,22.57 327.69,15.54 349.05,45.53 318.23,39.19 			"/>
		</g>
		<g>
			<g>
				<g>
					<g>
						<path class="st12" d="M306.79,65.32c-0.62,7.42,9.85,7.97,14.95,2.86c-1.39-9.09,0.67-10.63,2.27-18.18l-13.01,2.13
							l-0.38,1.21l-2.5,8.2L306.79,65.32z"/>
					</g>
				</g>
				<g>
					<g>
						<path class="st2" d="M308.13,61.54c7.56,0.94,13.22-7.29,13.22-7.29l-10.72-0.91L308.13,61.54z"/>
					</g>
				</g>
			</g>
			<g>
				<g>
					<g>
						<path class="st13" d="M311.27,43.64c0.05-0.16-1.64-5.15-4.84-3.45s-2.94,7.85,3.01,8.25L311.27,43.64z"/>
					</g>
				</g>
			</g>
			<g>
				<circle class="st8" cx="305.2" cy="47.69" r="1.56"/>
			</g>
			<g>
				<g>
					<path class="st12" d="M331.13,42.89l-0.59,1.5c0,0-3.14,7.04-6.9,10.82c-4.14,4.17-18.25,4.58-18.75-4.15
						c-0.2-3.56,3.02-14.79,3.02-14.79l-0.12-2.53c2.06-5.27,7.45-6.71,13.07-6.08c0.09,0.01,0,0,0.08,0.03
						C328.04,29.91,334.1,35.29,331.13,42.89z"/>
				</g>
			</g>
			<g>
				<path class="st2" d="M312.11,27.1c0,0,1.87,9.31,11.62,14.23l0.98,4.76l4.32,2.4c0,0,11.39-16.62-3.88-21.66L312.11,27.1z"/>
			</g>
			<g>
				<g>
					<g>
						<path class="st13" d="M311.33,52.63c-1.01,0.32-2.29,0.14-2.84-0.87c-0.12-0.22,0.22-0.43,0.34-0.21
							c0.47,0.85,1.54,0.97,2.39,0.7C311.46,52.17,311.57,52.55,311.33,52.63L311.33,52.63z"/>
					</g>
				</g>
			</g>
			<g>
				<g>
					<path class="st8" d="M314.04,48.7c-2.25-0.23-3.36-0.45-6.23-1.06c0,0-0.31,3.27,2.43,3.8
						C313.15,51.99,314.04,48.7,314.04,48.7z"/>
				</g>
			</g>
			<g>
				<g>
					<g>
						<path class="st2" d="M321.74,52.3c0.51,0.65,1.24,1.02,2.01,1.27c0.27,0.09,0.09,0.49-0.18,0.41
							c-0.84-0.28-1.63-0.71-2.19-1.41C321.21,52.34,321.56,52.07,321.74,52.3L321.74,52.3z"/>
					</g>
				</g>
			</g>
			<g>
				<g>
					<path class="st2" d="M323.28,41.15c0,0-1.72,5.46,2.22,6.42C329.44,48.52,328.2,40.02,323.28,41.15z"/>
				</g>
			</g>
			<g>
				<g>
					<path class="st2" d="M311.36,38.96c-1-0.35-2.88-0.67-3.9,1.39c0,0,2.16-0.8,3.15-0.17c0.33,0.21,0.61,0.22,0.83,0.13
						C312.04,40.05,311.96,39.18,311.36,38.96z"/>
				</g>
			</g>
			<g>
				<g>
					<path class="st2" d="M317.18,40.81c1.03,0.24,2.79,0.98,2.54,3.26c0,0-1.39-1.84-2.57-1.84c-0.39,0-0.64-0.14-0.77-0.34
						C316.02,41.36,316.55,40.66,317.18,40.81z"/>
				</g>
			</g>
			<g>
				<g>
					<g>
						<path class="st2" d="M310.93,47.02c-0.32-0.64-0.58-1.3-0.89-1.95c-0.07-0.14,0.05-0.27,0.18-0.3
							c0.47-0.1,1.38-0.19,1.69-0.52c0.26-0.27,0.41-0.82,0.58-1.16c0.41-0.81,0.82-1.63,1.23-2.44c0.13-0.25,0.53-0.08,0.41,0.18
							c-0.49,0.97-0.97,1.94-1.46,2.91c-0.13,0.25-0.24,0.65-0.44,0.85c-0.42,0.42-1.41,0.51-1.95,0.62c0.06-0.1,0.12-0.2,0.18-0.3
							c0.31,0.64,0.57,1.31,0.89,1.95C311.47,47.11,311.05,47.28,310.93,47.02L310.93,47.02z"/>
					</g>
				</g>
			</g>
			<g>
				<g>
					<g>
						<path class="st2" d="M315.55,44.23c-0.14,0.36,0.04,0.76,0.39,0.9c0.36,0.14,0.76-0.04,0.9-0.39s-0.04-0.76-0.39-0.9
							C316.1,43.69,315.69,43.87,315.55,44.23z"/>
					</g>
				</g>
				<g>
					<g>
						<path class="st2" d="M309.1,42.22c-0.14,0.36,0.04,0.76,0.39,0.9c0.36,0.14,0.76-0.04,0.9-0.39c0.14-0.36-0.04-0.76-0.39-0.9
							C309.64,41.69,309.24,41.86,309.1,42.22z"/>
					</g>
				</g>
			</g>
			<g>
				<g>
					<g>
						<path class="st12" d="M323.81,47.46c0.07-0.15,4.43-2.36,5.63,1.07c1.2,3.42-2.74,7.78-7.38,4.03L323.81,47.46z"/>
					</g>
				</g>
				<g>
					<path class="st8" d="M326.03,54.33c0,0.86-0.7,1.56-1.56,1.56c-0.86,0-1.56-0.7-1.56-1.56c0-0.86,0.7-1.56,1.56-1.56
						C325.33,52.77,326.03,53.47,326.03,54.33z"/>
				</g>
				<g>
					<g>
						<g>
							<path class="st2" d="M328.64,49.99c-1.51,0.17-2.87,0.8-4,1.82c-0.21,0.19-0.47-0.17-0.26-0.36
								c1.18-1.07,2.63-1.72,4.21-1.91C328.87,49.52,328.93,49.96,328.64,49.99L328.64,49.99z"/>
						</g>
					</g>
				</g>
			</g>
			<g>
				<g>
					<path class="st2" d="M323,30.48c0,0-9.65,6.36-15.51,8.28c0,0-1.9-5.92,2.62-10.38c7.06-6.98,15.63-1.46,17.83,0.33L323,30.48z
						"/>
				</g>
			</g>
		</g>
		<g>
			<g>
				<path class="st9" d="M308.83,29.91c0,0,2.49-3.91,5.68-5.85c0,0,15.68-0.31,21.8,13.46c0.67,1.91,0.87,5.96-1.02,7.84
					C335.3,45.35,323.68,27.08,308.83,29.91z"/>
			</g>
		</g>
		<g>
			<g>
				<path class="st2" d="M292.11,69.05c0,0-27.53,5.65-34.92,0.88c-7.39-4.76-5.12-16.41-9.61-16.01
					c-4.48,0.4-12.28,16.22-13.42,28.57c-1.14,12.35,1.08,7.91,11.59,12.61c11.19,5.01,34.77,11.67,40.03,6.18
					C291.05,95.79,292.11,69.05,292.11,69.05z"/>
			</g>
			<g>
				<g>
					<path class="st3" d="M257.62,71.04c1.93,4.07,3.06,8.43,3.36,12.92c0.02,0.36,0.59,0.36,0.56,0c-0.31-4.59-1.47-9.04-3.44-13.2
						C257.95,70.43,257.47,70.72,257.62,71.04L257.62,71.04z"/>
				</g>
			</g>
			<g>
				<g>
					<path class="st3" d="M281.85,102.54c0.96-6.31,2.11-12.59,3.47-18.84c0.08-0.35-0.47-0.5-0.54-0.15
						c-1.36,6.24-2.51,12.52-3.47,18.84C281.26,102.74,281.8,102.9,281.85,102.54L281.85,102.54z"/>
				</g>
			</g>
			<g>
				<path class="st12" d="M240.81,82.24c2.55,1.02,10.36-18.56,7.8-19.58c-4.18-12.38-8.83-34.91-8.83-34.91
					c0.12-1.55-6.88-1.62-7.72-0.2c0,0,0.65,43.04,7.84,53.55C240.18,81.49,240.48,81.87,240.81,82.24z"/>
			</g>
			<g>
				<g>
					<g>
						<g>
							<path class="st10" d="M203.84,36.79c-3.34,0.53-6.04-16.41-2.7-16.94c0,0,19.56-0.7,35.39-2.15
								c15.72-1.44,31.81-8.65,32.04-8.75c0,0,0,0,0,0s0,0,0,0c1.54,2.66,2.56,5.55,3.03,8.53c0.48,2.98,0.41,6.05-0.23,9.05
								c0,0,0,0-0.01,0c-0.17-0.02-3.69-0.38-8.89-0.48c-6.54-0.12-15.74,0.18-24.28,2.13C222.7,31.71,203.84,36.79,203.84,36.79z"
								/>
						</g>
					</g>
					<g>
						<g>
							<path class="st7" d="M271.37,26.52C271.37,26.52,271.37,26.52,271.37,26.52c-0.16-0.05-2.63-0.96-3.74-7.9
								c-1.12-7.05,0.87-9.6,0.93-9.68c0,0,0,0,0,0s0,0,0,0c1.54,2.66,2.56,5.55,3.03,8.53C272.08,20.45,272.01,23.52,271.37,26.52z
								"/>
						</g>
					</g>
					<g>
						<g>
							<g>
								<path class="st6" d="M268.54,12.46c0.03-0.03,0.06-0.06,0.09-0.09c0.09-0.07,0.29-0.15,0.55,0.03
									c0.99,0.7,1.59,3.48,1.8,4.64c0.39,2.15,0.49,4.24,0.24,5.08c-0.03,0.11-0.14,0.17-0.25,0.14
									c-0.11-0.03-0.17-0.14-0.14-0.25c0.5-1.68-0.51-8.31-1.88-9.27c-0.05-0.03-0.07-0.04-0.08-0.04c0,0-0.16,0.08-0.24,0.87
									c-0.24,2.63,0.81,8.77,1.4,9.16c0.01-0.01,0.01-0.01,0.02-0.02c0.34-0.42,0.24-3.96-1.04-8.01
									c-0.03-0.11,0.03-0.22,0.13-0.25c0.11-0.03,0.22,0.03,0.25,0.13c1.09,3.46,1.56,7.62,0.95,8.4c0,0,0,0,0,0.01
									c-0.09,0.11-0.21,0.17-0.33,0.16c-0.22-0.01-0.49-0.19-0.84-1.42C268.56,19.57,267.73,13.47,268.54,12.46z M270.05,22.74
									L270.05,22.74L270.05,22.74z"/>
							</g>
						</g>
					</g>
				</g>
				<g>
					<g>
						<path class="st11" d="M240.14,17.27c0,0-2.89-0.87-5.28,0c-2.6,0.95-0.97,11.34,1.61,11.68c2.53,0.34,5.22-1.49,5.22-1.49
							c-1.05,0.22-1.99,0.33-2.75,0.54c0,0-1.38-1.07-2.01-5.02c-0.63-3.95,0.6-5.38,0.6-5.38L240.14,17.27z"/>
					</g>
				</g>
				<g>
					<path class="st12" d="M236.42,27.52c0,0,0.83,2.85,2.92,2.89c2.08,0.04,3.46-0.98,5.42-1.45c1.96-0.47,0.27-2.59-1.76-2.39
						C240.96,26.79,236.42,27.52,236.42,27.52z"/>
				</g>
				<g>
					<path class="st12" d="M227.33,18.44c-1.44,2.81,0.72,10.32,1.9,11c1.77,1.02,2.87-0.18,2.87-0.18s0.32,1.25,1.92,1.01
						c1.6-0.24,1.66-1.6,1.66-1.6s1.19,1.11,1.94,0.91c1.28-0.33,1.88-1.97,1.88-1.97s1.15,1.05,1.83,0.37
						c1.14-1.15-0.82-4.24-0.28-6.52s0.6-3.35,0.34-4.4c-0.26-1.05-2.83-0.82-3.29,0.02c-0.11,0.2-1.12-0.89-2.13-0.77
						c-1.32,0.16-1.92,1.14-1.92,1.14s-1.52-1.13-2.66-0.83c-1.14,0.3-1.55,1.24-1.55,1.24S228.77,16.67,227.33,18.44z"/>
				</g>
				<g>
					<g>
						<path class="st13" d="M240.35,30.14c-2.68,0.54-5.36,0.42-7.99-0.33c-0.35-0.1-0.5,0.44-0.15,0.54
							c2.72,0.78,5.51,0.89,8.29,0.33C240.85,30.61,240.7,30.07,240.35,30.14L240.35,30.14z"/>
					</g>
				</g>
				<g>
					<g>
						<path class="st13" d="M232.11,29.37c-0.94-2.57-1.69-5.2-1.7-7.95c0-0.36-0.56-0.36-0.56,0c0.01,2.8,0.76,5.49,1.72,8.1
							C231.69,29.85,232.24,29.71,232.11,29.37L232.11,29.37z"/>
					</g>
				</g>
				<g>
					<g>
						<path class="st13" d="M235.71,28.59c-1.16-2.65-1.72-5.93-1.51-8.81c0.03-0.36-0.54-0.36-0.56,0
							c-0.21,2.98,0.39,6.36,1.59,9.1C235.37,29.2,235.85,28.92,235.71,28.59L235.71,28.59z"/>
					</g>
				</g>
				<g>
					<g>
						<path class="st13" d="M239.72,27.72c-0.85-2.36-1.34-4.95-1.41-7.45c-0.01-0.36-0.57-0.36-0.56,0c0.07,2.55,0.56,5.2,1.43,7.6
							C239.3,28.21,239.84,28.07,239.72,27.72L239.72,27.72z"/>
					</g>
				</g>
				<g>
					<g>
						<path class="st13" d="M231.7,29.68c1.47,0.99,3.18,0.84,4.16-0.71c-0.13,0.03-0.26,0.07-0.38,0.1
							c1.58,1.16,3.38,0.74,4.28-0.94c0.17-0.32-0.31-0.6-0.49-0.28c-0.77,1.43-2.21,1.69-3.51,0.74c-0.13-0.09-0.31-0.02-0.38,0.1
							c-0.83,1.32-2.21,1.3-3.39,0.5C231.68,28.99,231.4,29.48,231.7,29.68L231.7,29.68z"/>
					</g>
				</g>
			</g>
		</g>
	</g>
	<g>
		<g>
			<g>
				<path class="st7" d="M475.68,40.04c2.13,4.88,1.79,10.31,3.26,15.36c1.12,3.86,3.52,7.55,7.54,8.78
					c0.46,0.14,0.73-0.56,0.27-0.7c-4.61-1.41-6.73-6.04-7.61-10.42c-0.89-4.47-0.93-9.09-2.78-13.33
					C476.17,39.29,475.49,39.59,475.68,40.04L475.68,40.04z"/>
			</g>
		</g>
		<g>
			<path class="st7" d="M486.15,63.48c0,0,1.13,4.56,3.29,5.88l3.42-4.48C492.87,64.88,490.89,63.13,486.15,63.48z"/>
		</g>
		<g>
			<path class="st7" d="M485.32,65.16c0.64,0.53,1.58,0.44,2.11-0.19c0.53-0.64,0.44-1.58-0.19-2.11c-0.64-0.53-1.58-0.44-2.11,0.19
				C484.6,63.68,484.68,64.63,485.32,65.16z"/>
		</g>
		<g>
			<path class="st13" d="M481.29,64.34c-1.24-1.02-2.66-1.97-4.28-2.87c-8.15-4.53-6.09-9.16-7.89-15.72
				c-1.8-6.56-9.89-9.92-9.89-9.92l-9.18,2.9c-6.56,2.07-12.24,4.31-10.82,11.05c0.03,0.16,1.11,3.12,1.76,4.94
				c0,0,0.53,2.97-2.89,6.32c-3.42,3.35-2.87,5.87-0.87,10.48c2,4.62,1.62,6.74-2.12,9.32c-3.75,2.58-3.41,7.37-2.62,10.37
				c1.85,7.04,0.78,3.67-2.87,12.87c-3.66,9.2,1.4,12.76,4.57,13c3.17,0.24,32.05-21.62,45.24-14.46
				c13.19,7.17,21.35-12.16,17.52-19.5c-3.83-7.33-12.53-5.55-13.83-9.46C481.78,69.76,485.57,67.21,481.29,64.34"/>
		</g>
		<g>
			<path class="st2" d="M438.67,88.34c0,0-9.41,27.79-21.57,44.62c-8.03,11.11-2.5,35.49,17.83,32.83
				c20.33-2.67,19.83-31.33,19.83-31.33L438.67,88.34z"/>
		</g>
		<g>
			<path class="st6" d="M529.75,294.93c0,0-6.92,15.24-12.92,11.24c-7.53-5.02-13.58-14.25-47.91-11.41
				c-34.33,2.83-42.49,2.11-48.73-2.69c-6.24-4.8,64.63-30.81,93.72-19.14C529.32,279.11,529.75,294.93,529.75,294.93z"/>
		</g>
		<g>
			<g>
				<path class="st4" d="M459.66,226.66c-5.23,3.64-13.43,24.33-24.32,54.03c-2.83,7.72,15.26,112.05,15.26,112.05
					c3.46,2.81,6.44,3.76,9.83-0.67c0,0,2.21-28.11,2.69-54.23c0.47-26.12-1.27-42.14-1.27-42.14l16.67-51.73L459.66,226.66z"/>
			</g>
			<g>
				<g>
					<path class="st5" d="M436.21,295.06c3.2,1.35,6.68,1.57,10.03,0.66c0.47-0.13,0.27-0.85-0.2-0.72
						c-3.23,0.88-6.55,0.64-9.63-0.66C435.96,294.15,435.77,294.88,436.21,295.06L436.21,295.06z"/>
				</g>
			</g>
			<g>
				<g>
					<g>
						<g>
							<g>
								<g>
									<path class="st2" d="M465.35,394.38v13.79c0,0-2.09-0.01-3.48,0c-1.39,0.01-1.39-7.09-2.2-7.09
										c-0.81,0-3.25,7.19-3.25,7.19s-6.03,0.23-10.76,0.46c-4.72,0.23-16.97,0-12.56-2.43c1.88-1.04,4.86-2.86,7.73-4.82
										c0.36-0.25,0.72-0.5,1.08-0.74c3.45-2.43,6.48-4.94,6.85-6.33c0.69-2.67,1.26-5.3,1.96-5.3c0.58,0,2.39,3.91,4.03,4.86
										c0.01,0,0.01,0.01,0.02,0.01c0.34,0.19,0.64,0.26,0.86,0.14c1.28-0.7,4.33-6.34,5.14-6.69c0.26-0.11,2.26,1.65,2.69,2.1
										C464.7,390.83,465.35,392.58,465.35,394.38z"/>
								</g>
							</g>
						</g>
					</g>
				</g>
				<g>
					<path class="st4" d="M455.62,394.12c-0.86,1.74-3.33,3.97-6.16,5.86c-3.42,2.28-6.44,2.33-7.56,0.76
						c3.45-2.43,6.48-4.94,6.85-6.33c0.69-2.67,1.26-5.3,1.96-5.3C451.3,389.1,453.98,393.17,455.62,394.12z"/>
				</g>
			</g>
		</g>
		<g>
			<g>
				<path class="st4" d="M478.46,228.69c-3.9,5.04-5.51,27.24-6.98,58.84c-0.38,8.21,47.85,97.57,47.85,97.57
					c6.06,5.83,9.82,4.81,9.42-4.69c0,0-6.22-21.64-13.61-46.7c-7.39-25.06-13.86-39.81-13.86-39.81l0.37-54.35L478.46,228.69z"/>
			</g>
			<g>
				<g>
					<path class="st5" d="M472.84,291.31c3.66,1.26,7.65,0.85,10.98-1.11c0.42-0.24,0.04-0.89-0.38-0.65
						c-3.18,1.87-6.93,2.23-10.41,1.03C472.58,290.43,472.38,291.16,472.84,291.31L472.84,291.31z"/>
				</g>
			</g>
			<g>
				<g>
					<g>
						<g>
							<g>
								<g>
									<path class="st2" d="M534.41,385l3.17,13.42c0,0-2.03,0.47-3.39,0.8c-1.35,0.33-2.98-6.58-3.78-6.39
										c-0.21,0.05-0.48,1.02-0.74,2.4c-1.13,5.85-5.78,10.35-11.66,11.28c-0.06,0.01-0.13,0.02-0.19,0.03
										c-4.67,0.75-15.8,0.87-12.07-2.52c1.59-1.44,4.07-3.91,6.42-6.47c0.3-0.32,0.59-0.65,0.88-0.97
										c2.8-3.16,5.17-6.3,5.21-7.74c0.06-2.76,0-5.45,0.69-5.61c0.57-0.13,3.22,3.26,5.04,3.81c0.01,0,0.01,0,0.02,0.01
										c0.38,0.11,0.68,0.11,0.87-0.06c1.08-0.97,2.76-7.17,3.47-7.7c0.23-0.17,2.58,1.08,3.1,1.42
										C532.96,381.69,534,383.25,534.41,385z"/>
								</g>
							</g>
						</g>
					</g>
				</g>
				<g>
					<path class="st4" d="M524.89,386.98c-0.44,1.89-2.33,4.63-4.64,7.12c-2.81,3.01-5.73,3.75-7.18,2.48
						c2.8-3.16,5.17-6.3,5.21-7.74c0.06-2.76,0-5.45,0.69-5.61C519.52,383.09,523.07,386.43,524.89,386.98z"/>
				</g>
			</g>
		</g>
		<g>
			<path class="st2" d="M519.91,305.59c0.86-47.22-53.9-15.3-91.39-11.25c-37.49,4.05,18.5-124.29,17.54-149.95
				c-0.96-25.66-11.84-42.97-7.4-56.06c0.65-1.91,3.86-4.73,7.19-7.26c1.11-0.84,2.23-1.64,3.27-2.37c2.76-1.93,4.99-3.31,4.99-3.31
				l14.35-1.37c0,0,0.9,0.35,2.42,0.92c0.87,0.33,1.95,0.74,3.18,1.19c4.78,1.78,11.79,4.32,17.53,6.14
				c9.75,3.09,4.12,23.33,1.87,41.71c-2.25,18.37,18.24,67.2,36.44,112.95C547.41,280.93,519.76,313.92,519.91,305.59z"/>
		</g>
		<g>
			<path class="st3" d="M445.85,148.82c-0.19,4.59-1.19,9.07-2.97,13.31c-0.14,0.33,0.4,0.48,0.54,0.15
				c1.8-4.29,2.8-8.82,2.99-13.46C446.43,148.46,445.87,148.46,445.85,148.82L445.85,148.82z"/>
		</g>
		<g>
			<g>
				<path class="st3" d="M440.41,197.39c0.3,7.99,0.08,19.39-9.25,22.33c-0.34,0.11-0.2,0.65,0.15,0.54c3.8-1.2,6.55-4.31,8.07-7.91
					c1.98-4.7,1.78-9.97,1.6-14.97C440.96,197.03,440.4,197.03,440.41,197.39L440.41,197.39z"/>
			</g>
		</g>
		<g>
			<g>
				<path class="st3" d="M497.62,194.38c-0.78,5.13,0.08,10.52,3.25,14.74c2.94,3.92,7.44,6.13,12.3,6.39
					c0.36,0.02,0.36-0.54,0-0.56c-4.77-0.26-9.17-2.47-12-6.36c-2.94-4.04-3.74-9.19-3.01-14.06
					C498.22,194.17,497.68,194.02,497.62,194.38L497.62,194.38z"/>
			</g>
		</g>
		<g>
			<g>
				<path class="st3" d="M462.93,107.2c4.06,23.4,4.35,47.34,0.97,70.84c-3.26,22.66-9.28,45.06-9.17,68.09
					c0.06,12.18,1.86,24.42,6.56,35.71c0.14,0.33,0.68,0.18,0.54-0.15c-8.7-20.92-7.3-44.17-3.82-66.06
					c1.86-11.71,4.29-23.32,6.07-35.03c1.73-11.39,2.7-22.87,2.73-34.39c0.03-13.12-1.1-26.23-3.34-39.16
					C463.41,106.7,462.87,106.85,462.93,107.2L462.93,107.2z"/>
			</g>
		</g>
		<g>
			<g>
				<path class="st3" d="M438.13,103.88c0.98,4.49,1.95,8.98,2.93,13.48c0.08,0.35,0.62,0.2,0.54-0.15
					c-0.98-4.49-1.95-8.98-2.93-13.48C438.59,103.38,438.05,103.53,438.13,103.88L438.13,103.88z"/>
			</g>
		</g>
		<g>
			<path class="st7" d="M462.56,106.09c-9.34-11.8-14.59-21.37-16.7-25.01c1.11-0.84,2.23-1.64,3.27-2.37
				c2.76-1.93,4.99-3.31,4.99-3.31l14.35-1.37c0,0,0.9,0.35,2.42,0.92c0.87,0.33,1.95,0.74,3.18,1.19
				C473.07,88.96,462.56,106.09,462.56,106.09z"/>
		</g>
		<g>
			<path class="st8" d="M470.89,74.94c-0.06,1.35-0.36,3.01-0.83,4.84c-2.26,8.78-8.27,21.35-8.27,21.35
				c-2.99-4.32-6.84-11.31-9.74-16.8c-1.16-2.2-2.17-4.16-2.91-5.62c2.76-1.93,4.99-3.31,4.99-3.31l14.35-1.37
				C468.47,74.02,469.38,74.37,470.89,74.94z"/>
		</g>
		<g>
			<path class="st4" d="M470.89,74.94c-0.06,1.35-0.36,3.01-0.83,4.84c-2.06,3.2-5.23,6.85-9.12,7.28
				c-3.14,0.35-6.32-1.06-8.89-2.74c-1.16-2.2-2.17-4.16-2.91-5.62c2.76-1.93,4.99-3.31,4.99-3.31l14.35-1.37
				C468.47,74.02,469.38,74.37,470.89,74.94z"/>
		</g>
		<g>
			<path class="st2" d="M494.52,84.15c0,0,26.68,30.7,38.84,47.53c8.03,11.11,2.5,35.49-17.83,32.83
				c-20.33-2.67-24.94-28.12-24.94-28.12L494.52,84.15z"/>
		</g>
		<g>
			<g>
				<path class="st3" d="M495.95,100.08c-2.36,8.92-3.78,18.07-4.22,27.29c-0.02,0.36,0.54,0.36,0.56,0
					c0.44-9.17,1.85-18.26,4.2-27.14C496.58,99.88,496.04,99.73,495.95,100.08L495.95,100.08z"/>
			</g>
		</g>
		<g>
			<path class="st4" d="M519.05,137.27c4.73-0.04,4.61,15.08-0.12,15.12c-11.64,1.14-22.82-1.49-22.82-1.49
				c-2.25,0.02-2.31-6.97-0.06-6.98L519.05,137.27z"/>
		</g>
		<g>
			<polygon class="st2" points="427.09,43.3 448.62,23.87 481.57,40.32 451.38,49.2 			"/>
		</g>
		<g>
			<g>
				<g>
					<g>
						<path class="st4" d="M453.56,77.64c2.94,6.84,8.33,5.04,14.91-3.62c-4.72-8.65-4.77-10.58-6.9-17.99l-10.49,7.99l0.24,1.25
							l1.64,8.41L453.56,77.64z"/>
					</g>
				</g>
				<g>
					<g>
						<path class="st2" d="M452.96,73.67c7.11-2.72,8.25-12.64,8.25-12.64l-9.89,4.23L452.96,73.67z"/>
					</g>
				</g>
			</g>
			<g>
				<g>
					<g>
						<path class="st5" d="M447.33,56.4c-0.03-0.17-3.87-3.78-5.89-0.77c-2.03,3,1.09,8.32,6.53,5.87L447.33,56.4z"/>
					</g>
				</g>
			</g>
			<g>
				<g>
					<path class="st4" d="M464.51,46.41l0.19,1.6c0,0,0.53,7.69-1.01,12.8c-1.69,5.63-13.96,12.62-18.5,5.15
						c-1.85-3.05-4.28-14.47-4.28-14.47l-1.3-2.18c-0.65-5.62,3.43-9.43,8.68-11.51c0.08-0.03,0,0,0.09-0.02
						C455.69,36.4,463.57,38.3,464.51,46.41z"/>
				</g>
			</g>
			<g>
				<path class="st13" d="M440.3,41.4c0,0,6.02,7.35,16.94,7.1l3.1,3.74l4.94,0.09c8.41,0.04,2.67-20.02-13.6-17.3L440.3,41.4z"/>
			</g>
			<g>
				<g>
					<g>
						<path class="st5" d="M451.6,64.3c-0.74,0.76-1.96,1.2-2.92,0.57c-0.21-0.14-0.01-0.48,0.2-0.34c0.81,0.54,1.82,0.13,2.44-0.51
							C451.5,63.84,451.78,64.12,451.6,64.3L451.6,64.3z"/>
					</g>
				</g>
			</g>
			<g>
				<g>
					<path class="st8" d="M452.15,59.56c-2.1,0.85-3.18,1.18-6,1.99c0,0,1.26,3.04,3.93,2.21
						C452.91,62.88,452.15,59.56,452.15,59.56z"/>
				</g>
			</g>
			<g>
				<g>
					<g>
						<path class="st2" d="M461.42,59.12c0.75,0.33,1.57,0.32,2.37,0.18c0.28-0.05,0.31,0.39,0.03,0.44
							c-0.87,0.15-1.77,0.14-2.59-0.22C460.96,59.41,461.16,59.01,461.42,59.12L461.42,59.12z"/>
					</g>
				</g>
			</g>
			<g>
				<g>
					<path class="st13" d="M456.76,48.55c0,0,1.05,5.63,4.98,4.62C465.66,52.17,460.58,45.25,456.76,48.55z"/>
				</g>
			</g>
			<g>
				<g>
					<path class="st2" d="M445.21,52.23c-1.05,0.16-2.86,0.76-2.79,3.06c0,0,1.53-1.72,2.7-1.63c0.39,0.03,0.64-0.09,0.8-0.28
						C446.32,52.87,445.85,52.13,445.21,52.23z"/>
				</g>
			</g>
			<g>
				<g>
					<path class="st2" d="M451.22,51.12c1.02-0.27,2.92-0.44,3.78,1.69c0,0-2.09-0.97-3.13-0.42c-0.35,0.18-0.63,0.17-0.84,0.06
						C450.45,52.15,450.59,51.29,451.22,51.12z"/>
				</g>
			</g>
			<g>
				<g>
					<g>
						<path class="st2" d="M448.61,59.54c-0.58-0.42-1.12-0.88-1.7-1.3c-0.13-0.09-0.09-0.26,0.02-0.35
							c0.37-0.31,1.13-0.81,1.25-1.26c0.1-0.36-0.02-0.92-0.03-1.3c-0.02-0.91-0.04-1.82-0.06-2.73c-0.01-0.28,0.44-0.32,0.44-0.03
							c0.03,1.08,0.05,2.17,0.08,3.25c0.01,0.28,0.09,0.69,0.01,0.96c-0.17,0.57-1.01,1.11-1.43,1.47c0.01-0.12,0.01-0.23,0.02-0.35
							c0.57,0.42,1.12,0.89,1.7,1.3C449.13,59.37,448.84,59.71,448.61,59.54L448.61,59.54z"/>
					</g>
				</g>
			</g>
			<g>
				<g>
					<g>
						<path class="st2" d="M451.83,55.43c0.04,0.38,0.39,0.65,0.77,0.61c0.38-0.04,0.65-0.39,0.61-0.77
							c-0.04-0.38-0.39-0.65-0.77-0.61C452.06,54.7,451.79,55.05,451.83,55.43z"/>
					</g>
				</g>
				<g>
					<g>
						<path class="st2" d="M445.19,56.69c0.04,0.38,0.39,0.65,0.77,0.61c0.38-0.04,0.65-0.39,0.61-0.77
							c-0.04-0.38-0.39-0.65-0.77-0.61C445.42,55.97,445.15,56.31,445.19,56.69z"/>
					</g>
				</g>
			</g>
			<g>
				<g>
					<g>
						<path class="st4" d="M460.19,53.88c-0.01-0.17,2.81-4.16,5.47-1.7c2.66,2.46,1.24,8.15-4.62,7.02L460.19,53.88z"/>
					</g>
				</g>
				<g>
					<g>
						<g>
							<path class="st2" d="M465.65,53.84c-1.26,0.87-2.16,2.06-2.68,3.49c-0.1,0.27-0.5,0.08-0.4-0.19
								c0.54-1.5,1.51-2.76,2.82-3.66C465.63,53.32,465.88,53.68,465.65,53.84L465.65,53.84z"/>
						</g>
					</g>
				</g>
			</g>
			<g>
				<g>
					<path class="st13" d="M451.5,39.27c0,0-5.53,10.15-9.8,14.6c0,0-4.46-4.33-2.56-10.4c2.95-9.47,13.11-8.63,15.9-8.08
						L451.5,39.27z"/>
				</g>
			</g>
		</g>
		<g>
			<g>
				<path class="st9" d="M438.73,45.42c0,0,0.37-4.62,2.27-7.84c0,0,13.7-7.64,25.56,1.64c1.49,1.37,3.56,4.85,2.79,7.4
					C469.34,46.62,450.5,35.95,438.73,45.42z"/>
			</g>
		</g>
		<g>
			<g>
				<rect x="445.68" y="111.6" class="st14" width="46.89" height="36.24"/>
			</g>
			<g>
				<path class="st1" d="M486.22,117.09H452.6c-0.41,0-0.74-0.33-0.74-0.74v-0.14c0-0.41,0.33-0.74,0.74-0.74h33.62
					c0.41,0,0.74,0.33,0.74,0.74v0.14C486.96,116.75,486.63,117.09,486.22,117.09z"/>
			</g>
			<g>
				<path class="st1" d="M486.22,121.08H452.6c-0.41,0-0.74-0.33-0.74-0.74v-0.14c0-0.41,0.33-0.74,0.74-0.74h33.62
					c0.41,0,0.74,0.33,0.74,0.74v0.14C486.96,120.75,486.63,121.08,486.22,121.08z"/>
			</g>
			<g>
				<path class="st1" d="M458.88,141.01h-8.25c-0.41,0-0.74-0.33-0.74-0.74v-0.14c0-0.41,0.33-0.74,0.74-0.74h8.25
					c0.41,0,0.74,0.33,0.74,0.74v0.14C459.63,140.68,459.29,141.01,458.88,141.01z"/>
			</g>
			<g>
				<path class="st1" d="M458.88,145.01h-8.25c-0.41,0-0.74-0.33-0.74-0.74v-0.14c0-0.41,0.33-0.74,0.74-0.74h8.25
					c0.41,0,0.74,0.33,0.74,0.74v0.14C459.63,144.68,459.29,145.01,458.88,145.01z"/>
			</g>
			<g>
				<polygon class="st7" points="474.07,151.25 470.83,149.64 469.04,148.75 467.25,149.62 463.99,151.19 464.96,142.23 
					465.49,137.27 469.1,137.8 472.72,137.31 473.2,142.27 				"/>
			</g>
			<g>
				<path class="st7" d="M477.94,134.75L477.94,134.75c-0.57,0.55-0.83,1.33-0.7,2.1l0,0.01c0.22,1.32-0.69,2.56-2.01,2.73l0,0
					c-0.78,0.11-1.45,0.59-1.8,1.29v0c-0.59,1.2-2.06,1.67-3.24,1.03l0,0c-0.69-0.37-1.52-0.38-2.22-0.01l0,0
					c-1.18,0.62-2.65,0.14-3.22-1.07l0,0c-0.34-0.71-1.01-1.2-1.79-1.31l0,0c-1.32-0.19-2.22-1.44-1.98-2.76l0-0.01
					c0.14-0.77-0.11-1.56-0.67-2.11l0,0c-0.95-0.93-0.95-2.47,0.02-3.39l0,0c0.57-0.54,0.83-1.33,0.7-2.1l0-0.01
					c-0.22-1.32,0.69-2.56,2.01-2.73l0,0c0.78-0.11,1.45-0.59,1.8-1.29l0,0c0.59-1.2,2.06-1.67,3.24-1.03h0
					c0.69,0.37,1.52,0.38,2.22,0.01l0,0c1.18-0.62,2.65-0.14,3.22,1.07v0c0.34,0.71,1.01,1.2,1.79,1.31l0,0
					c1.32,0.19,2.22,1.44,1.98,2.76l0,0.01c-0.14,0.77,0.11,1.56,0.67,2.11l0,0C478.91,132.29,478.9,133.82,477.94,134.75z"/>
			</g>
			<g>
				<path class="st10" d="M466.87,140.84c-0.39,0-0.74-0.22-0.92-0.58l0,0c-0.53-1.11-1.58-1.88-2.8-2.06l0,0
					c-0.27-0.04-0.52-0.19-0.68-0.41c-0.16-0.23-0.23-0.5-0.18-0.78l0-0.01c0.22-1.21-0.18-2.44-1.05-3.3l0,0
					c-0.2-0.2-0.31-0.46-0.31-0.74c0-0.28,0.11-0.54,0.31-0.73l0,0c0.89-0.85,1.3-2.08,1.09-3.29l0-0.01
					c-0.05-0.27,0.02-0.55,0.18-0.77c0.17-0.22,0.41-0.37,0.69-0.41l0,0c1.22-0.17,2.28-0.92,2.82-2.03
					c0.17-0.35,0.53-0.57,0.92-0.57c0.17,0,0.33,0.04,0.48,0.12c0.53,0.29,1.13,0.44,1.74,0.44c0.6,0,1.21-0.14,1.74-0.42
					c0.15-0.08,0.31-0.12,0.48-0.12c0.39,0,0.75,0.22,0.92,0.58c0.53,1.11,1.58,1.88,2.8,2.06l0.01,0c0.27,0.04,0.52,0.19,0.68,0.41
					c0.16,0.23,0.23,0.5,0.18,0.78l0,0c-0.22,1.21,0.17,2.45,1.05,3.31l0.01,0.01c0.2,0.19,0.31,0.45,0.3,0.73
					c0,0.28-0.11,0.54-0.31,0.73l0,0c-0.89,0.85-1.3,2.08-1.09,3.29l0,0.01c0.05,0.27-0.02,0.55-0.18,0.77
					c-0.17,0.22-0.41,0.37-0.69,0.41l-0.01,0c-1.22,0.17-2.27,0.92-2.82,2.03c-0.17,0.35-0.53,0.57-0.92,0.57
					c-0.17,0-0.33-0.04-0.48-0.12c-0.53-0.29-1.13-0.44-1.74-0.44c-0.6,0-1.21,0.14-1.74,0.42
					C467.2,140.8,467.04,140.84,466.87,140.84z"/>
			</g>
		</g>
		<g>
			<path class="st4" d="M425.67,136.16c-1.6,4.45,12.7,9.34,14.31,4.89c4.93-10.61,7.78-21.43,7.78-21.43
				c0.76-2.12-7.44-5.08-8.21-2.96L425.67,136.16z"/>
		</g>
		<g>
			<path class="st4" d="M439.55,116.66c0,0,6.66-10.42,12.6-9.82c2.34,0.23,3.98,2.32,8.19,3.06c3.56,0.62,3.81,1.7,3.81,1.7h-9.39
				c0.81,0.61-3.64,4.39-7,8.02C444.35,123.31,439.55,116.66,439.55,116.66z"/>
		</g>
		<g>
			<path class="st4" d="M497.49,150.13c0,0-9.33,4.82-14.97,2.86c-5.64-1.96-7.5-5.41-7.5-5.41l7.5,0.06c0,0,7.24-1.01,11.64-3.43
				C498.57,141.78,497.49,150.13,497.49,150.13z"/>
		</g>
		<g>
			<path class="st4" d="M450.22,113.77c0,0,4.67,3,6.05,3.31c1.37,0.31-1.17-2.56-1.17-2.56s3.78,3.3,4.91,3.09
				c1.12-0.21-1.53-3.84-1.53-3.84s4.31,4.37,5,3.81c0.8-0.66-2.53-5.25-2.53-5.25s2.09,0.38,4.22,0c2.12-0.37-4.22-2.32-4.22-2.32
				S449.97,108.27,450.22,113.77z"/>
		</g>
		<g>
			<path class="st4" d="M495.52,143.76c0,0-1.75-2-4.5-2.5c-2.75-0.5-5.94-1.31-7,0c-1.06,1.31,3.75,1.87,4.19,2.99
				c0.44,1.13-2.23,2.74-2.23,2.74S493.65,146.7,495.52,143.76z"/>
		</g>
	</g>
	<g>
		<path class="st10" d="M158.15,32.7c0,1.74-1.41,3.15-3.15,3.15c-1.74,0-3.15-1.41-3.15-3.15c0-1.74,1.41-3.15,3.15-3.15
			C156.74,29.55,158.15,30.96,158.15,32.7z"/>
		<path class="st6" d="M542.02,176.69c0,1.22-0.99,2.22-2.22,2.22c-1.22,0-2.22-0.99-2.22-2.22c0-1.22,0.99-2.22,2.22-2.22
			C541.02,174.48,542.02,175.47,542.02,176.69z"/>
		<circle class="st6" cx="401.3" cy="244.78" r="2.22"/>
		<path class="st6" d="M290.05,24.03c0,1.22-0.99,2.22-2.22,2.22c-1.22,0-2.22-0.99-2.22-2.22c0-1.22,0.99-2.22,2.22-2.22
			C289.06,21.82,290.05,22.81,290.05,24.03z"/>
		<path class="st6" d="M181.35,42.99c0,1.22-0.99,2.22-2.22,2.22c-1.22,0-2.22-0.99-2.22-2.22s0.99-2.22,2.22-2.22
			C180.36,40.78,181.35,41.77,181.35,42.99z"/>
		<path class="st10" d="M528.03,188.75c0,1.74-1.41,3.15-3.15,3.15c-1.74,0-3.15-1.41-3.15-3.15s1.41-3.15,3.15-3.15
			C526.62,185.6,528.03,187.01,528.03,188.75z"/>
		<path class="st10" d="M22.61,185.58c0,1.74-1.41,3.15-3.15,3.15c-1.74,0-3.15-1.41-3.15-3.15c0-1.74,1.41-3.15,3.15-3.15
			C21.2,182.43,22.61,183.84,22.61,185.58z"/>
		<circle class="st7" cx="32.47" cy="68.08" r="2.69"/>
		<path class="st7" d="M358.29,6.25c0,1.48-1.2,2.69-2.69,2.69c-1.48,0-2.69-1.2-2.69-2.69c0-1.48,1.2-2.69,2.69-2.69
			C357.09,3.57,358.29,4.77,358.29,6.25z"/>
		<path class="st7" d="M391.67,132.15c0,1.48-1.2,2.69-2.69,2.69c-1.48,0-2.69-1.2-2.69-2.69c0-1.48,1.2-2.69,2.69-2.69
			C390.46,129.46,391.67,130.67,391.67,132.15z"/>
		<path class="st7" d="M519.11,67.35c0,1.48-1.2,2.69-2.69,2.69c-1.48,0-2.69-1.2-2.69-2.69c0-1.48,1.2-2.69,2.69-2.69
			C517.91,64.67,519.11,65.87,519.11,67.35z"/>
		<path class="st7" d="M236.21,164.71c0,1.48-1.2,2.69-2.69,2.69c-1.48,0-2.69-1.2-2.69-2.69c0-1.48,1.2-2.69,2.69-2.69
			C235,162.02,236.21,163.23,236.21,164.71z"/>
		<path class="st7" d="M10.84,164.71c0,1.05-0.85,1.9-1.9,1.9c-1.05,0-1.9-0.85-1.9-1.9c0-1.05,0.85-1.9,1.9-1.9
			C9.99,162.81,10.84,163.66,10.84,164.71z"/>
	</g>
</g>
</svg>
